<svg width="289" height="74" viewBox="0 0 289 74" fill="none" xmlns="http://www.w3.org/2000/svg">
<path d="M15.744 49.752L25.92 38.376V37.896H17.28L9.312 47.016V27.48H2.4V63H9.312V52.728L17.52 63H26.448V62.52L15.744 49.752ZM27.3862 63H34.2983V50.616C34.2983 46.584 36.5543 44.232 40.0583 44.232H42.4583V37.464H40.7303C37.5143 37.464 35.4023 39.336 34.2983 41.544H34.1063L33.5303 37.896H27.3862V63ZM55.3545 63.432C62.2185 63.432 66.2025 59.448 66.8745 54.936H59.7225C59.2905 56.088 58.0905 57.432 55.3545 57.432C51.9945 57.432 50.5065 55.368 50.4585 52.44H67.2105V49.704C67.2105 42.888 62.8905 37.464 55.2105 37.464C47.0505 37.464 42.9225 43.368 42.9225 50.472C42.9225 57.672 47.4345 63.432 55.3545 63.432ZM50.5065 47.784C50.6505 45.384 52.0425 43.512 55.2105 43.512C58.1385 43.512 59.5305 45.384 59.6745 47.784H50.5065ZM76.4584 63.432C79.5784 63.432 81.7864 62.328 83.1784 60.744H83.3704L83.8984 63H90.5224V46.488C90.5224 41.256 86.3944 37.464 79.5304 37.464C72.1384 37.464 68.7304 41.496 68.7304 46.2H75.6424C75.6424 44.664 76.9864 43.416 79.2904 43.416C82.0264 43.416 83.1304 44.76 83.1304 46.488V48.552C82.1224 48.216 79.6264 47.832 77.7544 47.832C70.8424 47.832 67.6744 50.904 67.6744 55.56C67.6744 60.024 70.7944 63.432 76.4584 63.432ZM78.3304 57.672C76.1224 57.672 74.9704 56.616 74.9704 55.176C74.9704 53.832 76.2184 52.776 78.6184 52.776C80.0584 52.776 81.5944 52.968 83.1304 53.592V53.832C83.1304 55.896 81.3544 57.672 78.3304 57.672ZM103.963 63.432C106.315 63.432 108.283 63 109.051 62.712V56.568H108.571C107.803 56.856 106.987 57 106.171 57C103.963 57 102.955 55.992 102.955 53.64V44.184H108.955V37.896H102.955V31.32H102.475L95.8991 32.664V37.896H91.4831V44.184H95.5631V55.416C95.5631 59.976 98.1551 63.432 103.963 63.432ZM115.419 35.352C118.251 35.352 119.883 33.72 119.883 31.032C119.883 28.392 118.251 26.76 115.419 26.76C112.491 26.76 110.955 28.392 110.955 31.032C110.955 33.72 112.491 35.352 115.419 35.352ZM111.675 63H119.067V37.896H111.675V63ZM127.522 63H136.978L144.85 38.376V37.896H137.362L132.418 56.04H132.226L127.138 37.896H119.554V38.376L127.522 63ZM156.098 63.432C162.962 63.432 166.946 59.448 167.618 54.936H160.466C160.034 56.088 158.834 57.432 156.098 57.432C152.738 57.432 151.25 55.368 151.202 52.44H167.954V49.704C167.954 42.888 163.634 37.464 155.954 37.464C147.794 37.464 143.666 43.368 143.666 50.472C143.666 57.672 148.178 63.432 156.098 63.432ZM151.25 47.784C151.394 45.384 152.786 43.512 155.954 43.512C158.882 43.512 160.274 45.384 160.418 47.784H151.25Z" fill="black"/>
<path d="M171.32 73.992H175.352V59.592H175.544C176.84 61.752 179.288 63.432 182.936 63.432C189.848 63.432 193.304 58.008 193.352 50.76C193.304 42.84 189.368 38.04 182.936 38.04C179.288 38.04 176.84 39.72 175.544 41.88H175.352L174.824 38.472H171.32V73.992ZM182.264 59.832C177.368 59.832 175.256 55.608 175.256 50.76C175.256 45.864 177.368 41.64 182.264 41.64C187.352 41.64 189.272 45.816 189.272 50.76C189.272 55.656 187.352 59.832 182.264 59.832ZM207.302 63.432C214.982 63.432 218.39 57.768 218.39 50.76C218.39 43.704 214.886 38.04 207.302 38.04C199.718 38.04 196.214 43.704 196.214 50.76C196.214 57.816 199.622 63.432 207.302 63.432ZM207.302 59.832C202.358 59.832 200.294 56.04 200.294 50.76C200.294 45.528 202.31 41.64 207.302 41.64C212.294 41.64 214.31 45.48 214.31 50.76C214.31 56.04 212.294 59.832 207.302 59.832ZM223.168 63H227.2V51.096C227.2 45.336 229.312 42.072 233.968 42.072H235.888V38.184H233.68C230.656 38.184 228.208 39.864 227.2 42.6H227.007L226.671 38.472H223.168V63ZM248.111 63.432C249.647 63.432 250.991 63.24 251.759 63.048V59.592H251.279C250.751 59.736 250.031 59.88 248.879 59.88C246.671 59.88 245.663 58.872 245.663 56.52V41.88H251.663V38.472H245.663V31.896H245.183L241.727 33.24V38.472H237.551V41.88H241.631V56.856C241.631 60.936 243.263 63.432 248.111 63.432ZM262.936 63.432C266.392 63.432 269.128 62.04 270.616 59.544H270.808L271.096 63H274.504V46.488C274.504 41.832 271.192 38.04 264.904 38.04C259.528 38.04 255.592 41.16 255.592 45.864H259.48C259.528 43.512 261.304 41.496 264.904 41.496C268.888 41.496 270.568 43.848 270.568 46.584V49.032C269.032 48.6 267.112 48.168 264.52 48.168C257.32 48.168 254.392 51.72 254.392 55.848C254.392 60.12 257.608 63.432 262.936 63.432ZM263.656 60.072C260.104 60.072 258.472 58.248 258.472 55.8C258.472 52.92 260.536 51.384 264.52 51.384C266.68 51.384 268.552 51.624 270.568 52.248V53.496C270.568 57.048 267.832 60.072 263.656 60.072ZM280.736 63H284.768V27.48H280.736V63Z" fill="#464646"/>
<path d="M119.677 25.1813C78.8036 -24.2366 35.4149 10.083 18 35C65.0028 -6.47012 95.0177 10.5759 107.422 28.5C109.066 26.9542 113.818 24.1263 119.677 25.1813Z" fill="black"/>
<path d="M128 32.7455C128.5 35.5 123.472 35.5 117.256 35.5C111.039 35.5 105.5 35.5 106 32.7455C106 30.2619 111.039 26 117.256 26C123.472 26 128 30.2619 128 32.7455Z" fill="black"/>
</svg>
