<?xml version="1.0" standalone="no"?>
<!DOCTYPE svg PUBLIC "-//W3C//DTD SVG 1.1//EN" "http://www.w3.org/Graphics/SVG/1.1/DTD/svg11.dtd" >
<svg xmlns="http://www.w3.org/2000/svg" xmlns:xlink="http://www.w3.org/1999/xlink" version="1.1">
<metadata>
Created by FontForge 20190801 at Mon Jun 18 11:10:41 2018
 By Jimmy Wärting
copyright missing
</metadata>
<defs>
<font id="RadioGrotesk-Regular" horiz-adv-x="512" >
  <font-face 
    font-family="Radio Grotesk"
    font-weight="400"
    font-stretch="normal"
    units-per-em="1000"
    panose-1="0 0 5 0 0 0 0 0 0 0"
    ascent="800"
    descent="-200"
    x-height="500"
    cap-height="700"
    bbox="-387 -271.165 1051 925"
    underline-thickness="50"
    underline-position="-100"
    unicode-range="U+0020-25CA"
  />
<missing-glyph horiz-adv-x="500" 
d="M410 -200h-317v1000h317v-1000zM168 733v-33h65v-37h-66v-33h166v33h-66v37h66v33h-165zM167 604v-104h166v34h-66v70h-100zM233 534h-33v36h33v-36zM167 473v-33h66v-37h-66v-33h100v70h66v33h-166zM300 413v-66h-133v-34h166v100h-33zM233 291v-56h34v23h33v-47h-100
v80h-33v-113h166v113h-100zM167 118v-113h166v113h-166zM300 38h-100v47h100v-47zM167 -18v-33h70l-70 -47v-33h166v33h-102l70 47h32v33h-166z" />
    <glyph glyph-name=".notdef" horiz-adv-x="500" 
d="M410 -200h-317v1000h317v-1000zM168 733v-33h65v-37h-66v-33h166v33h-66v37h66v33h-165zM167 604v-104h166v34h-66v70h-100zM233 534h-33v36h33v-36zM167 473v-33h66v-37h-66v-33h100v70h66v33h-166zM300 413v-66h-133v-34h166v100h-33zM233 291v-56h34v23h33v-47h-100
v80h-33v-113h166v113h-100zM167 118v-113h166v113h-166zM300 38h-100v47h100v-47zM167 -18v-33h70l-70 -47v-33h166v33h-102l70 47h32v33h-166z" />
    <glyph glyph-name="A" unicode="A" horiz-adv-x="671" 
d="M472 191h-273l-68 -191h-109l264 700h99l264 -700h-109zM442 275l-106 296l-106 -296h212z" />
    <glyph glyph-name="Aacute" unicode="&#xc1;" horiz-adv-x="671" 
d="M375 755h-73l58 142h92zM472 191h-273l-68 -191h-109l264 700h99l264 -700h-109zM442 275l-106 296l-106 -296h212z" />
    <glyph glyph-name="Abreve" unicode="&#x102;" horiz-adv-x="671" 
d="M334 743c-89 0 -153 67 -153 156h72c0 -52 29 -89 81 -89s81 37 81 89h72c0 -89 -64 -156 -153 -156zM472 191h-273l-68 -191h-109l264 700h99l264 -700h-109zM442 275l-106 296l-106 -296h212z" />
    <glyph glyph-name="Acircumflex" unicode="&#xc2;" horiz-adv-x="671" 
d="M260 781h-94l127 119h81l127 -119h-94l-73 93zM472 191h-273l-68 -191h-109l264 700h99l264 -700h-109zM442 275l-106 296l-106 -296h212z" />
    <glyph glyph-name="Adieresis" unicode="&#xc4;" horiz-adv-x="671" 
d="M314 791h-101v109h101v-109zM453 791h-101v109h101v-109zM472 191h-273l-68 -191h-109l264 700h99l264 -700h-109zM442 275l-106 296l-106 -296h212z" />
    <glyph glyph-name="Agrave" unicode="&#xc0;" horiz-adv-x="671" 
d="M299 758l-77 142h92l58 -142h-73zM472 191h-273l-68 -191h-109l264 700h99l264 -700h-109zM442 275l-106 296l-106 -296h212z" />
    <glyph glyph-name="Amacron" unicode="&#x100;" horiz-adv-x="671" 
d="M473 769h-275v71h275v-71zM472 191h-273l-68 -191h-109l264 700h99l264 -700h-109zM442 275l-106 296l-106 -296h212z" />
    <glyph glyph-name="Aogonek" unicode="&#x104;" horiz-adv-x="600" 
d="M199 191l-67 -187h8c-20 -20 -108 -204 34 -161l41 -69c-61 -50 -311 -29 -131 226h-62l264 700h99l264 -700h-109l-68 191h-273zM230 275h212l-106 296z" />
    <glyph glyph-name="Aring" unicode="&#xc5;" horiz-adv-x="671" 
d="M334 744c-51 0 -91 40 -91 91c0 50 40 90 91 90c50 0 90 -40 90 -90c0 -51 -40 -91 -90 -91zM334 872c-21 0 -38 -17 -38 -37c0 -21 17 -38 38 -38c20 0 37 17 37 38c0 20 -17 37 -37 37zM472 191h-273l-68 -191h-109l264 700h99l264 -700h-109zM442 275l-106 296
l-106 -296h212z" />
    <glyph glyph-name="Atilde" unicode="&#xc3;" horiz-adv-x="671" 
d="M278 807c-43 2 -61 -27 -75 -57l-51 41c29 58 61 85 129 81c68 -3 81 -55 122 -57c35 -2 50 15 63 51l63 -23c-11 -35 -53 -97 -129 -93c-65 4 -72 54 -122 57zM472 191h-273l-68 -191h-109l264 700h99l264 -700h-109zM442 275l-106 296l-106 -296h212z" />
    <glyph glyph-name="AE" unicode="&#xc6;" horiz-adv-x="907" 
d="M516 611v-216h306v-89h-306v-217h361v-89h-460v191h-218l-68 -191h-109l264 700h591v-89h-361zM350 611l-120 -336h187v336h-67z" />
    <glyph glyph-name="B" unicode="B" horiz-adv-x="574" 
d="M428 377c79 -19 124 -64 124 -166c0 -149 -96 -211 -256 -211h-266v700h236c156 0 236 -55 236 -184c0 -72 -25 -115 -74 -139zM129 618v-210h137c94 0 147 31 147 108s-53 102 -147 102h-137zM296 82c104 0 157 42 157 129s-53 119 -157 119h-167v-248h167z" />
    <glyph glyph-name="C" unicode="C" horiz-adv-x="683" 
d="M127 350c0 193 90 274 219 273c107 -1 191 -52 220 -181l95 19c-37 165 -162 244 -315 246c-184 2 -324 -114 -324 -357s140 -359 324 -357c153 2 278 81 315 246l-95 19c-29 -129 -113 -180 -220 -181c-129 -1 -219 80 -219 273z" />
    <glyph glyph-name="Cacute" unicode="&#x106;" horiz-adv-x="683" 
d="M366 900h92l-77 -142h-73zM127 350c0 193 90 274 219 273c107 -1 191 -52 220 -181l95 19c-37 165 -162 244 -315 246c-184 2 -324 -114 -324 -357s140 -359 324 -357c153 2 278 81 315 246l-95 19c-29 -129 -113 -180 -220 -181c-129 -1 -219 80 -219 273z" />
    <glyph glyph-name="Ccaron" unicode="&#x10c;" horiz-adv-x="683" 
d="M180 890h94l74 -93l73 93h94l-127 -119h-81zM346 77c107 1 191 52 220 181l95 -19c-37 -165 -162 -244 -315 -246c-184 -2 -324 114 -324 357s140 359 324 357c153 -2 278 -81 315 -246l-95 -19c-29 129 -113 180 -220 181c-129 1 -219 -80 -219 -273s90 -274 219 -273z
" />
    <glyph glyph-name="Ccedilla" unicode="&#xc7;" horiz-adv-x="683" 
d="M346 77c107 1 191 52 220 181l95 -19c-34 -152 -143 -231 -280 -244l-26 -56c55 0 118 -23 118 -92c0 -131 -182 -138 -242 -48l45 48c38 -48 118 -54 118 0c0 48 -64 49 -104 49v38l31 59c-171 9 -299 125 -299 357c0 243 140 359 324 357c153 -2 278 -81 315 -246
l-95 -19c-29 129 -113 180 -220 181c-129 1 -219 -80 -219 -273s90 -274 219 -273z" />
    <glyph glyph-name="D" unicode="D" horiz-adv-x="645" 
d="M267 700c195 0 356 -112 356 -350s-161 -350 -356 -350h-237v700h237zM267 83c139 0 253 78 253 267c0 190 -115 267 -253 267h-138v-534h138z" />
    <glyph glyph-name="Eth" unicode="&#xd0;" horiz-adv-x="690" 
d="M312 700c195 0 356 -112 356 -350s-161 -350 -356 -350h-237v313h-65v78h65v309h237zM312 83c139 0 253 78 253 267c0 190 -115 267 -253 267h-138v-226h75v-78h-75v-230h138z" />
    <glyph glyph-name="Dcaron" unicode="&#x10e;" horiz-adv-x="645" 
d="M141 890h94l74 -93l73 93h94l-127 -119h-81zM267 700c195 0 356 -112 356 -350s-161 -350 -356 -350h-237v700h237zM267 83c139 0 253 78 253 267c0 190 -115 267 -253 267h-138v-534h138z" />
    <glyph glyph-name="Dcroat" unicode="&#x110;" horiz-adv-x="690" 
d="M312 700c195 0 356 -112 356 -350s-161 -350 -356 -350h-237v313h-65v78h65v309h237zM312 83c139 0 253 78 253 267c0 190 -115 267 -253 267h-138v-226h75v-78h-75v-230h138z" />
    <glyph glyph-name="E" unicode="E" 
d="M129 611v-216h306v-89h-306v-217h361v-89h-460v700h460v-89h-361z" />
    <glyph glyph-name="Eacute" unicode="&#xc9;" 
d="M294 755h-73l58 142h92zM129 611v-216h306v-89h-306v-217h361v-89h-460v700h460v-89h-361z" />
    <glyph glyph-name="Ecaron" unicode="&#x11a;" 
d="M87 890h94l74 -93l73 93h94l-127 -119h-81zM129 611v-216h306v-89h-306v-217h361v-89h-460v700h460v-89h-361z" />
    <glyph glyph-name="Ecircumflex" unicode="&#xca;" 
d="M179 781h-94l127 119h81l127 -119h-94l-73 93zM129 611v-216h306v-89h-306v-217h361v-89h-460v700h460v-89h-361z" />
    <glyph glyph-name="Edieresis" unicode="&#xcb;" 
d="M233 791h-101v109h101v-109zM372 791h-101v109h101v-109zM129 611v-216h306v-89h-306v-217h361v-89h-460v700h460v-89h-361z" />
    <glyph glyph-name="Edotaccent" unicode="&#x116;" 
d="M303 791h-101v109h101v-109zM129 611v-216h306v-89h-306v-217h361v-89h-460v700h460v-89h-361z" />
    <glyph glyph-name="Egrave" unicode="&#xc8;" 
d="M218 758l-77 142h92l58 -142h-73zM129 611v-216h306v-89h-306v-217h361v-89h-460v700h460v-89h-361z" />
    <glyph glyph-name="Emacron" unicode="&#x112;" 
d="M392 769h-275v71h275v-71zM129 611v-216h306v-89h-306v-217h361v-89h-460v700h460v-89h-361z" />
    <glyph glyph-name="Eogonek" unicode="&#x118;" horiz-adv-x="600" 
d="M129 611v-216h306v-89h-306v-217h361v-89h-353c-25 -33 -98 -198 37 -157l41 -69c-61 -50 -311 -29 -131 226h-54v700h460v-89h-361z" />
    <glyph glyph-name="F" unicode="F" 
d="M129 611v-216h306v-89h-306v-306h-99v700h460v-89h-361z" />
    <glyph glyph-name="G" unicode="G" horiz-adv-x="692" 
d="M670 0h-86v153c-31 -84 -96 -160 -238 -160c-184 0 -324 115 -324 357c0 243 140 359 324 357c153 -2 278 -81 315 -246l-95 -19c-29 129 -113 180 -220 181c-129 1 -219 -80 -219 -273s90 -273 219 -273c112 0 209 60 233 203h-157l10 85h238v-365z" />
    <glyph glyph-name="uni0122" unicode="&#x122;" horiz-adv-x="700" 
d="M670 0h-86v153c-31 -84 -96 -160 -238 -160c-184 0 -324 115 -324 357c0 243 140 359 324 357c153 -2 278 -81 315 -246l-95 -19c-29 129 -113 180 -220 181c-129 1 -219 -80 -219 -273s90 -273 219 -273c112 0 209 60 233 203h-157l10 85h238v-365zM315 -50l81 -1
l-61 -125h-60z" />
    <glyph glyph-name="H" unicode="H" horiz-adv-x="596" 
d="M566 700v-700h-99v306h-338v-306h-99v700h99v-305h338v305h99z" />
    <glyph glyph-name="I" unicode="I" horiz-adv-x="159" 
d="M129 0v700h-99v-700h99z" />
    <glyph glyph-name="Iacute" unicode="&#xcd;" horiz-adv-x="159" 
d="M104 897h92l-77 -142h-73zM129 0v700h-99v-700h99z" />
    <glyph glyph-name="Icircumflex" unicode="&#xce;" horiz-adv-x="159" 
d="M245 781h-94l-73 93l-74 -93h-94l127 119h81zM30 700h99v-700h-99v700z" />
    <glyph glyph-name="Idieresis" unicode="&#xcf;" horiz-adv-x="159" 
d="M-43 900h101v-109h-101v109zM96 900h101v-109h-101v109zM129 0v700h-99v-700h99z" />
    <glyph glyph-name="Igrave" unicode="&#xcc;" horiz-adv-x="159" 
d="M43 758l-77 142h92l58 -142h-73zM129 0v700h-99v-700h99z" />
    <glyph glyph-name="Imacron" unicode="&#x12a;" horiz-adv-x="159" 
d="M217 840v-71h-275v71h275zM129 0v700h-99v-700h99z" />
    <glyph glyph-name="Iogonek" unicode="&#x12e;" horiz-adv-x="159" 
d="M157 -226c-61 -50 -314 -29 -128 230h1v696h99v-700h-50c-25 -33 -98 -198 37 -157z" />
    <glyph glyph-name="J" unicode="J" horiz-adv-x="489" 
d="M459 700v-477c0 -154 -100 -230 -219 -230c-111 0 -205 66 -218 196l96 17c9 -86 61 -124 122 -124c64 0 120 42 120 141v477h99z" />
    <glyph glyph-name="K" unicode="K" horiz-adv-x="590" 
d="M454 0l-228 316l-97 -120v-196h-99v700h99v-366l290 366h114l-249 -310l284 -390h-114z" />
    <glyph glyph-name="uni0136" unicode="&#x136;" horiz-adv-x="600" 
d="M568 0h-114l-228 316l-97 -120v-196h-99v700h99v-366l290 366h114l-249 -310zM266 -34l81 -1l-61 -125h-60z" />
    <glyph glyph-name="L" unicode="L" horiz-adv-x="475" 
d="M460 86v-86h-430v700h99v-614h331z" />
    <glyph glyph-name="Lacute" unicode="&#x139;" horiz-adv-x="475" 
d="M118 758h-73l58 142h92zM460 86v-86h-430v700h99v-614h331z" />
    <glyph glyph-name="Lcaron" unicode="&#x13d;" horiz-adv-x="475" 
d="M-83 890h94l74 -93l73 93h94l-127 -119h-81zM460 86v-86h-430v700h99v-614h331z" />
    <glyph glyph-name="uni013B" unicode="&#x13b;" horiz-adv-x="485" 
d="M460 86v-86h-430v700h99v-614h331zM210 -34l81 -1l-61 -125h-60z" />
    <glyph glyph-name="Lslash" unicode="&#x141;" horiz-adv-x="475" 
d="M460 86v-86h-430v305l-101 -36l-20 58l121 43v330h99v-295l108 38l20 -58l-128 -45v-254h331z" />
    <glyph glyph-name="M" unicode="M" horiz-adv-x="711" 
d="M681 0h-99v475l-182 -475h-89l-182 475v-475h-99v700h105l221 -582l220 582h105v-700z" />
    <glyph glyph-name="N" unicode="N" horiz-adv-x="613" 
d="M583 700v-700h-99l-355 550v-550h-99v700h99l355 -553v553h99z" />
    <glyph glyph-name="Nacute" unicode="&#x143;" horiz-adv-x="613" 
d="M347 758h-73l58 142h92zM583 700v-700h-99l-355 550v-550h-99v700h99l355 -553v553h99z" />
    <glyph glyph-name="Ncaron" unicode="&#x147;" horiz-adv-x="613" 
d="M146 890h94l74 -93l73 93h94l-127 -119h-81zM583 700v-700h-99l-355 550v-550h-99v700h99l355 -553v553h99z" />
    <glyph glyph-name="uni0145" unicode="&#x145;" horiz-adv-x="613" 
d="M583 700v-700h-99l-355 550v-550h-99v700h99l355 -553v553h99zM305 -192h-73l58 142h92z" />
    <glyph glyph-name="Eng" unicode="&#x14a;" horiz-adv-x="613" 
d="M583 700v-700c0 -98 -33 -160 -151 -160h-22v88h22c40 0 52 21 52 72l-355 550v-550h-99v700h99l355 -553v553h99z" />
    <glyph glyph-name="Ntilde" unicode="&#xd1;" horiz-adv-x="613" 
d="M256 807c-43 2 -61 -27 -75 -57l-51 41c29 58 61 85 129 81c68 -3 81 -55 122 -57c35 -2 50 15 63 51l63 -23c-11 -35 -53 -97 -129 -93c-65 4 -72 54 -122 57zM583 700v-700h-99l-355 550v-550h-99v700h99l355 -553v553h99z" />
    <glyph glyph-name="O" unicode="O" horiz-adv-x="712" 
d="M690 350c0 -242 -150 -357 -334 -357s-334 115 -334 357c0 243 150 359 334 357s334 -115 334 -357zM585 350c0 194 -101 272 -229 273c-129 2 -229 -80 -229 -273s100 -273 229 -273s229 80 229 273z" />
    <glyph glyph-name="Oacute" unicode="&#xd3;" horiz-adv-x="712" 
d="M382 897h92l-77 -142h-73zM690 350c0 -242 -150 -357 -334 -357s-334 115 -334 357c0 243 150 359 334 357s334 -115 334 -357zM585 350c0 194 -101 272 -229 273c-129 2 -229 -80 -229 -273s100 -273 229 -273s229 80 229 273z" />
    <glyph glyph-name="Ocircumflex" unicode="&#xd4;" horiz-adv-x="712" 
d="M282 781h-94l127 119h81l127 -119h-94l-73 93zM356 707c184 -2 334 -115 334 -357s-150 -357 -334 -357s-334 115 -334 357c0 243 150 359 334 357zM356 77c129 0 229 80 229 273c0 194 -101 272 -229 273c-129 2 -229 -80 -229 -273s100 -273 229 -273z" />
    <glyph glyph-name="Odieresis" unicode="&#xd6;" horiz-adv-x="712" 
d="M235 900h101v-109h-101v109zM374 900h101v-109h-101v109zM690 350c0 -242 -150 -357 -334 -357s-334 115 -334 357c0 243 150 359 334 357s334 -115 334 -357zM585 350c0 194 -101 272 -229 273c-129 2 -229 -80 -229 -273s100 -273 229 -273s229 80 229 273z" />
    <glyph glyph-name="Ograve" unicode="&#xd2;" horiz-adv-x="712" 
d="M321 758l-77 142h92l58 -142h-73zM690 350c0 -242 -150 -357 -334 -357s-334 115 -334 357c0 243 150 359 334 357s334 -115 334 -357zM585 350c0 194 -101 272 -229 273c-129 2 -229 -80 -229 -273s100 -273 229 -273s229 80 229 273z" />
    <glyph glyph-name="Ohungarumlaut" unicode="&#x150;" horiz-adv-x="712" 
d="M321 900h92l-97 -142h-53zM451 900h92l-97 -142h-53zM690 350c0 -242 -150 -357 -334 -357s-334 115 -334 357c0 243 150 359 334 357s334 -115 334 -357zM585 350c0 194 -101 272 -229 273c-129 2 -229 -80 -229 -273s100 -273 229 -273s229 80 229 273z" />
    <glyph glyph-name="Omacron" unicode="&#x14c;" horiz-adv-x="712" 
d="M495 840v-71h-275v71h275zM690 350c0 -242 -150 -357 -334 -357s-334 115 -334 357c0 243 150 359 334 357s334 -115 334 -357zM585 350c0 194 -101 272 -229 273c-129 2 -229 -80 -229 -273s100 -273 229 -273s229 80 229 273z" />
    <glyph glyph-name="Oslash" unicode="&#xd8;" horiz-adv-x="740" 
d="M645 571c36 -56 58 -129 58 -221c0 -242 -150 -357 -334 -357c-86 0 -165 25 -224 77l-80 -80l-55 55l84 83c-37 56 -59 130 -59 222c0 243 150 359 334 357c87 -1 166 -27 225 -79l82 82l54 -54zM140 350c0 -60 10 -109 27 -148l361 360c-41 42 -97 61 -159 61
c-129 2 -229 -80 -229 -273zM598 350c0 60 -10 108 -27 147l-360 -361c41 -41 96 -59 158 -59c129 0 229 80 229 273z" />
    <glyph glyph-name="Otilde" unicode="&#xd5;" horiz-adv-x="712" 
d="M174 791c29 58 61 85 129 81c68 -3 81 -55 122 -57c35 -2 50 15 63 51l63 -23c-11 -35 -53 -97 -129 -93c-65 4 -72 54 -122 57c-43 2 -61 -27 -75 -57zM690 350c0 -242 -150 -357 -334 -357s-334 115 -334 357c0 243 150 359 334 357s334 -115 334 -357zM585 350
c0 194 -101 272 -229 273c-129 2 -229 -80 -229 -273s100 -273 229 -273s229 80 229 273z" />
    <glyph glyph-name="OE" unicode="&#x152;" horiz-adv-x="1081" 
d="M690 611v-216h306v-89h-306v-217h361v-89h-460v91c-56 -66 -138 -98 -235 -98c-184 0 -334 115 -334 357c0 243 150 359 334 357c97 -1 179 -33 235 -99v92h460v-89h-361zM356 77c129 0 229 80 229 273c0 194 -101 272 -229 273c-129 2 -229 -80 -229 -273
s100 -273 229 -273z" />
    <glyph glyph-name="P" unicode="P" horiz-adv-x="552" 
d="M274 700c160 0 256 -83 256 -232s-96 -232 -256 -232h-145v-236h-99v700h244zM274 318c104 0 157 63 157 150s-53 150 -157 150h-145v-300h145z" />
    <glyph glyph-name="Thorn" unicode="&#xde;" horiz-adv-x="552" 
d="M274 590c160 0 256 -83 256 -232s-96 -232 -256 -232h-145v-126h-99v700h99v-110h145zM274 208c104 0 157 63 157 150s-53 150 -157 150h-145v-300h145z" />
    <glyph glyph-name="Q" unicode="Q" horiz-adv-x="712" 
d="M690 350c0 -117 -35 -204 -91 -263c23 -6 50 -10 83 -10v-79c-67 0 -117 14 -157 34c-50 -26 -107 -39 -169 -39c-184 0 -334 115 -334 357c0 243 150 359 334 357s334 -115 334 -357zM127 350c0 -193 100 -273 229 -273c32 0 62 5 90 15c-21 22 -38 44 -56 64l63 49
c20 -25 39 -49 61 -69c44 44 71 114 71 214c0 194 -101 272 -229 273c-129 2 -229 -80 -229 -273z" />
    <glyph glyph-name="R" unicode="R" horiz-adv-x="570" 
d="M436 0l-128 237c-8 -1 -16 -1 -24 -1h-155v-236h-99v700h254c160 0 256 -83 256 -232c0 -108 -50 -181 -138 -213l146 -255h-112zM129 318h155c104 0 157 63 157 150s-53 150 -157 150h-155v-300z" />
    <glyph glyph-name="Racute" unicode="&#x154;" horiz-adv-x="570" 
d="M302 758h-73l58 142h92zM436 0l-128 237c-8 -1 -16 -1 -24 -1h-155v-236h-99v700h254c160 0 256 -83 256 -232c0 -108 -50 -181 -138 -213l146 -255h-112zM129 318h155c104 0 157 63 157 150s-53 150 -157 150h-155v-300z" />
    <glyph glyph-name="Rcaron" unicode="&#x158;" horiz-adv-x="570" 
d="M101 890h94l74 -93l73 93h94l-127 -119h-81zM436 0l-128 237c-8 -1 -16 -1 -24 -1h-155v-236h-99v700h254c160 0 256 -83 256 -232c0 -108 -50 -181 -138 -213l146 -255h-112zM129 318h155c104 0 157 63 157 150s-53 150 -157 150h-155v-300z" />
    <glyph glyph-name="uni0156" unicode="&#x156;" horiz-adv-x="570" 
d="M548 0h-112l-128 237c-8 -1 -16 -1 -24 -1h-155v-236h-99v700h254c160 0 256 -83 256 -232c0 -108 -50 -181 -138 -213zM129 318h155c104 0 157 63 157 150s-53 150 -157 150h-155v-300zM246 -34l81 -1l-61 -125h-60z" />
    <glyph glyph-name="S" unicode="S" horiz-adv-x="566" 
d="M22 185c9 -88 64 -190 262 -190c209 0 260 125 260 217c0 305 -407 119 -407 298c0 92 75 122 144 122c65 0 130 -31 139 -108l93 17c-16 104 -110 167 -232 169c-144 2 -244 -77 -244 -200c0 -285 407 -98 407 -298c0 -103 -84 -133 -160 -133c-73 0 -158 30 -166 122z
" />
    <glyph glyph-name="Sacute" unicode="&#x15a;" horiz-adv-x="566" 
d="M301 900h92l-77 -142h-73zM22 185c9 -88 64 -190 262 -190c209 0 260 125 260 217c0 305 -407 119 -407 298c0 92 75 122 144 122c65 0 130 -31 139 -108l93 17c-16 104 -110 167 -232 169c-144 2 -244 -77 -244 -200c0 -285 407 -98 407 -298c0 -103 -84 -133 -160 -133
c-73 0 -158 30 -166 122z" />
    <glyph glyph-name="Scaron" unicode="&#x160;" horiz-adv-x="566" 
d="M115 890h94l74 -93l73 93h94l-127 -119h-81zM137 510c0 -179 407 7 407 -298c0 -92 -51 -217 -260 -217c-198 0 -253 102 -262 190l96 16c8 -92 93 -122 166 -122c76 0 160 30 160 133c0 200 -407 13 -407 298c0 123 100 202 244 200c122 -2 216 -65 232 -169l-93 -17
c-9 77 -74 108 -139 108c-69 0 -144 -30 -144 -122z" />
    <glyph glyph-name="Scedilla" unicode="&#x15e;" horiz-adv-x="566" 
d="M544 212c0 -86 -45 -202 -223 -216l-27 -57c55 0 118 -23 118 -92c0 -131 -182 -138 -242 -48l45 48c38 -48 118 -54 118 0c0 48 -64 49 -104 49v38l32 61c-179 8 -230 105 -239 190l96 16c8 -92 93 -122 166 -122c76 0 160 30 160 133c0 200 -407 13 -407 298
c0 123 100 202 244 200c122 -2 216 -65 232 -169l-93 -17c-9 77 -74 108 -139 108c-69 0 -144 -30 -144 -122c0 -179 407 7 407 -298z" />
    <glyph glyph-name="T" unicode="T" horiz-adv-x="590" 
d="M570 611h-225v-611h-99v611h-226v89h550v-89z" />
    <glyph glyph-name="Tbar" unicode="&#x166;" horiz-adv-x="590" 
d="M345 611v-212h115v-74h-115v-325h-99v325h-116v74h116v212h-226v89h550v-89h-225z" />
    <glyph glyph-name="Tcaron" unicode="&#x164;" horiz-adv-x="590" 
d="M129 890h94l74 -93l73 93h94l-127 -119h-81zM570 611h-225v-611h-99v611h-226v89h550v-89z" />
    <glyph glyph-name="uni0162" unicode="&#x162;" horiz-adv-x="590" 
d="M301 0l-19 -40c55 0 118 -23 118 -92c0 -131 -182 -138 -242 -48l45 48c38 -48 118 -54 118 0c0 48 -64 49 -104 49v38l29 55v601h-226v89h550v-89h-225v-611h-44z" />
    <glyph glyph-name="U" unicode="U" horiz-adv-x="624" 
d="M492 700v-408c0 -152 -79 -216 -180 -216s-180 64 -180 216v408h-102v-407c0 -204 127 -301 282 -301s282 97 282 301v407h-102z" />
    <glyph glyph-name="Uacute" unicode="&#xda;" horiz-adv-x="624" 
d="M338 897h92l-77 -142h-73zM492 700v-408c0 -152 -79 -216 -180 -216s-180 64 -180 216v408h-102v-407c0 -204 127 -301 282 -301s282 97 282 301v407h-102z" />
    <glyph glyph-name="Ucircumflex" unicode="&#xdb;" horiz-adv-x="624" 
d="M238 781h-94l127 119h81l127 -119h-94l-73 93zM594 700v-407c0 -204 -127 -301 -282 -301s-282 97 -282 301v407h102v-408c0 -152 79 -216 180 -216s180 64 180 216v408h102z" />
    <glyph glyph-name="Udieresis" unicode="&#xdc;" horiz-adv-x="624" 
d="M191 900h101v-109h-101v109zM330 900h101v-109h-101v109zM492 700v-408c0 -152 -79 -216 -180 -216s-180 64 -180 216v408h-102v-407c0 -204 127 -301 282 -301s282 97 282 301v407h-102z" />
    <glyph glyph-name="Ugrave" unicode="&#xd9;" horiz-adv-x="624" 
d="M277 758l-77 142h92l58 -142h-73zM492 700v-408c0 -152 -79 -216 -180 -216s-180 64 -180 216v408h-102v-407c0 -204 127 -301 282 -301s282 97 282 301v407h-102z" />
    <glyph glyph-name="Uhungarumlaut" unicode="&#x170;" horiz-adv-x="624" 
d="M277 900h92l-97 -142h-53zM407 900h92l-97 -142h-53zM492 700v-408c0 -152 -79 -216 -180 -216s-180 64 -180 216v408h-102v-407c0 -204 127 -301 282 -301s282 97 282 301v407h-102z" />
    <glyph glyph-name="Umacron" unicode="&#x16a;" horiz-adv-x="624" 
d="M451 840v-71h-275v71h275zM492 700v-408c0 -152 -79 -216 -180 -216s-180 64 -180 216v408h-102v-407c0 -204 127 -301 282 -301s282 97 282 301v407h-102z" />
    <glyph glyph-name="Uogonek" unicode="&#x172;" horiz-adv-x="624" 
d="M594 700v-407c0 -189 -109 -286 -248 -299c-27 -44 -86 -190 42 -151l41 -69c-60 -49 -306 -30 -136 218c-146 8 -263 105 -263 301v407h102v-408c0 -152 79 -216 180 -216s180 64 180 216v408h102z" />
    <glyph glyph-name="Uring" unicode="&#x16e;" horiz-adv-x="624" 
d="M312 744c-51 0 -91 40 -91 91c0 50 40 90 91 90c50 0 90 -40 90 -90c0 -51 -40 -91 -90 -91zM312 797c20 0 37 17 37 38c0 20 -17 37 -37 37c-21 0 -38 -17 -38 -37c0 -21 17 -38 38 -38zM492 700v-408c0 -152 -79 -216 -180 -216s-180 64 -180 216v408h-102v-407
c0 -204 127 -301 282 -301s282 97 282 301v407h-102z" />
    <glyph glyph-name="V" unicode="V" horiz-adv-x="649" 
d="M627 700l-253 -700h-99l-253 700h109l194 -557l193 557h109z" />
    <glyph glyph-name="W" unicode="W" horiz-adv-x="957" 
d="M935 700l-219 -700h-99l-138 513l-139 -513h-99l-219 700h109l157 -525l140 525h101l140 -525l157 525h109z" />
    <glyph glyph-name="Wacute" unicode="&#x1e82;" horiz-adv-x="957" 
d="M517 755h-73l58 142h92zM935 700l-219 -700h-99l-138 513l-139 -513h-99l-219 700h109l157 -525l140 525h101l140 -525l157 525h109z" />
    <glyph glyph-name="Wcircumflex" unicode="&#x174;" horiz-adv-x="957" 
d="M402 781h-94l127 119h81l127 -119h-94l-73 93zM935 700l-219 -700h-99l-138 513l-139 -513h-99l-219 700h109l157 -525l140 525h101l140 -525l157 525h109z" />
    <glyph glyph-name="Wdieresis" unicode="&#x1e84;" horiz-adv-x="957" 
d="M456 791h-101v109h101v-109zM595 791h-101v109h101v-109zM935 700l-219 -700h-99l-138 513l-139 -513h-99l-219 700h109l157 -525l140 525h101l140 -525l157 525h109z" />
    <glyph glyph-name="Wgrave" unicode="&#x1e80;" horiz-adv-x="957" 
d="M441 758l-77 142h92l58 -142h-73zM935 700l-219 -700h-99l-138 513l-139 -513h-99l-219 700h109l157 -525l140 525h101l140 -525l157 525h109z" />
    <glyph glyph-name="X" unicode="X" horiz-adv-x="646" 
d="M516 -1l-193 278l-193 -278h-110l246 360l-236 340h117l176 -257l176 257h117l-236 -340l246 -360h-110z" />
    <glyph glyph-name="Y" unicode="Y" horiz-adv-x="616" 
d="M601 699l-242 -354v-345h-100v345l-244 354h117l177 -264l175 264h117z" />
    <glyph glyph-name="Yacute" unicode="&#xdd;" horiz-adv-x="616" 
d="M350 755h-73l58 142h92zM601 699l-242 -354v-345h-100v345l-244 354h117l177 -264l175 264h117z" />
    <glyph glyph-name="Ycircumflex" unicode="&#x176;" horiz-adv-x="616" 
d="M235 781h-94l127 119h81l127 -119h-94l-73 93zM601 699l-242 -354v-345h-100v345l-244 354h117l177 -264l175 264h117z" />
    <glyph glyph-name="Ydieresis" unicode="&#x178;" horiz-adv-x="616" 
d="M289 791h-101v109h101v-109zM428 791h-101v109h101v-109zM601 699l-242 -354v-345h-100v345l-244 354h117l177 -264l175 264h117z" />
    <glyph glyph-name="Ygrave" unicode="&#x1ef2;" horiz-adv-x="616" 
d="M274 758l-77 142h92l58 -142h-73zM601 699l-242 -354v-345h-100v345l-244 354h117l177 -264l175 264h117z" />
    <glyph glyph-name="Z" unicode="Z" horiz-adv-x="612" 
d="M590 89v-89h-568v89l433 522h-425v89h551v-89l-433 -522h442z" />
    <glyph glyph-name="Zacute" unicode="&#x179;" horiz-adv-x="612" 
d="M340 758h-73l58 142h92zM590 89v-89h-568v89l433 522h-425v89h551v-89l-433 -522h442z" />
    <glyph glyph-name="Zcaron" unicode="&#x17d;" horiz-adv-x="612" 
d="M139 890h94l74 -93l73 93h94l-127 -119h-81zM590 89v-89h-568v89l433 522h-425v89h551v-89l-433 -522h442z" />
    <glyph glyph-name="Zdotaccent" unicode="&#x17b;" horiz-adv-x="612" 
d="M355 791h-101v109h101v-109zM590 89v-89h-568v89l433 522h-425v89h551v-89l-433 -522h442z" />
    <glyph glyph-name="a" unicode="a" horiz-adv-x="490" 
d="M252 503c107 -1 213 -46 213 -196v-307h-101v86c-80 -146 -342 -115 -342 56c0 231 342 99 342 193c0 61 -58 86 -112 86c-50 0 -107 -11 -120 -90l-90 17c17 118 113 156 210 155zM128 142c0 -126 236 -121 236 74v45c-63 -42 -236 3 -236 -119z" />
    <glyph glyph-name="aacute" unicode="&#xe1;" horiz-adv-x="490" 
d="M295 555h-73l58 142h92zM252 503c107 -1 213 -46 213 -196v-307h-101v86c-80 -146 -342 -115 -342 56c0 231 342 99 342 193c0 61 -58 86 -112 86c-50 0 -107 -11 -120 -90l-90 17c17 118 113 156 210 155zM128 142c0 -126 236 -121 236 74v45c-63 -42 -236 3 -236 -119z
" />
    <glyph glyph-name="abreve" unicode="&#x103;" horiz-adv-x="490" 
d="M254 543c-89 0 -153 67 -153 156h72c0 -52 29 -89 81 -89s81 37 81 89h72c0 -89 -64 -156 -153 -156zM252 503c107 -1 213 -46 213 -196v-307h-101v86c-80 -146 -342 -115 -342 56c0 231 342 99 342 193c0 61 -58 86 -112 86c-50 0 -107 -11 -120 -90l-90 17
c17 118 113 156 210 155zM128 142c0 -126 236 -121 236 74v45c-63 -42 -236 3 -236 -119z" />
    <glyph glyph-name="acircumflex" unicode="&#xe2;" horiz-adv-x="490" 
d="M180 581h-94l127 119h81l127 -119h-94l-73 93zM252 503c107 -1 213 -46 213 -196v-307h-101v86c-80 -146 -342 -115 -342 56c0 231 342 99 342 193c0 61 -58 86 -112 86c-50 0 -107 -11 -120 -90l-90 17c17 118 113 156 210 155zM128 142c0 -126 236 -121 236 74v45
c-63 -42 -236 3 -236 -119z" />
    <glyph glyph-name="adieresis" unicode="&#xe4;" horiz-adv-x="490" 
d="M234 591h-101v109h101v-109zM373 591h-101v109h101v-109zM252 503c107 -1 213 -46 213 -196v-307h-101v86c-80 -146 -342 -115 -342 56c0 231 342 99 342 193c0 61 -58 86 -112 86c-50 0 -107 -11 -120 -90l-90 17c17 118 113 156 210 155zM128 142
c0 -126 236 -121 236 74v45c-63 -42 -236 3 -236 -119z" />
    <glyph glyph-name="agrave" unicode="&#xe0;" horiz-adv-x="490" 
d="M219 558l-77 142h92l58 -142h-73zM252 503c107 -1 213 -46 213 -196v-307h-101v86c-80 -146 -342 -115 -342 56c0 231 342 99 342 193c0 61 -58 86 -112 86c-50 0 -107 -11 -120 -90l-90 17c17 118 113 156 210 155zM128 142c0 -126 236 -121 236 74v45
c-63 -42 -236 3 -236 -119z" />
    <glyph glyph-name="amacron" unicode="&#x101;" horiz-adv-x="490" 
d="M393 569h-275v71h275v-71zM252 503c107 -1 213 -46 213 -196v-307h-101v86c-80 -146 -342 -115 -342 56c0 231 342 99 342 193c0 61 -58 86 -112 86c-50 0 -107 -11 -120 -90l-90 17c17 118 113 156 210 155zM128 142c0 -126 236 -121 236 74v45
c-63 -42 -236 3 -236 -119z" />
    <glyph glyph-name="aogonek" unicode="&#x105;" horiz-adv-x="490" 
d="M497 -222c-60 -50 -309 -29 -133 223v85c-80 -146 -342 -115 -342 56c0 231 342 99 342 193c0 61 -58 86 -112 86c-50 0 -107 -11 -120 -90l-90 17c17 118 113 156 210 155c107 -1 213 -46 213 -196v-307h-49c-27 -41 -90 -192 40 -153zM128 142c0 -126 236 -121 236 74
v45c-63 -42 -236 3 -236 -119z" />
    <glyph glyph-name="aring" unicode="&#xe5;" horiz-adv-x="490" 
d="M254 544c-51 0 -91 40 -91 91c0 50 40 90 91 90c50 0 90 -40 90 -90c0 -51 -40 -91 -90 -91zM254 672c-21 0 -38 -17 -38 -37c0 -21 17 -38 38 -38c20 0 37 17 37 38c0 20 -17 37 -37 37zM252 503c107 -1 213 -46 213 -196v-307h-101v86c-80 -146 -342 -115 -342 56
c0 231 342 99 342 193c0 61 -58 86 -112 86c-50 0 -107 -11 -120 -90l-90 17c17 118 113 156 210 155zM128 142c0 -126 236 -121 236 74v45c-63 -42 -236 3 -236 -119z" />
    <glyph glyph-name="atilde" unicode="&#xe3;" horiz-adv-x="490" 
d="M198 607c-43 2 -61 -27 -75 -57l-51 41c29 58 61 85 129 81c68 -3 81 -55 122 -57c35 -2 50 15 63 51l63 -23c-11 -35 -53 -97 -129 -93c-65 4 -72 54 -122 57zM252 503c107 -1 213 -46 213 -196v-307h-101v86c-80 -146 -342 -115 -342 56c0 231 342 99 342 193
c0 61 -58 86 -112 86c-50 0 -107 -11 -120 -90l-90 17c17 118 113 156 210 155zM128 142c0 -126 236 -121 236 74v45c-63 -42 -236 3 -236 -119z" />
    <glyph glyph-name="ae" unicode="&#xe6;" horiz-adv-x="870" 
d="M848 250c0 -14 -1 -27 -3 -40h-386c13 -93 75 -134 146 -133c60 1 118 30 145 96l86 -34c-40 -97 -132 -144 -231 -145c-101 -1 -191 49 -227 152c-46 -212 -356 -191 -356 -4c0 231 342 99 342 193c0 61 -58 86 -112 86c-50 0 -107 -11 -120 -90l-90 17
c17 118 113 156 210 155c71 -1 132 -20 166 -77c45 54 113 81 187 80c131 -1 243 -83 243 -256zM605 423c-70 1 -131 -39 -146 -130h292c-15 91 -76 129 -146 130zM128 142c0 -126 234 -138 234 108v9c-65 -39 -234 4 -234 -117z" />
    <glyph glyph-name="b" unicode="b" horiz-adv-x="545" 
d="M305 506c132 -1 218 -83 218 -256s-86 -256 -218 -256c-79 0 -140 28 -176 92v-86h-99v700h99v-286c36 64 97 93 176 92zM279 72c89 0 146 61 146 178s-57 177 -146 178c-80 1 -150 -44 -150 -178s70 -178 150 -178z" />
    <glyph glyph-name="c" unicode="c" 
d="M22 250c0 -173 112 -257 243 -256c101 1 186 50 225 152l-87 32c-25 -70 -77 -100 -138 -101c-80 -1 -149 51 -149 173s69 174 149 173c61 -1 113 -31 138 -101l87 32c-39 102 -124 151 -225 152c-131 1 -243 -83 -243 -256z" />
    <glyph glyph-name="cacute" unicode="&#x107;" 
d="M285 700h92l-77 -142h-73zM22 250c0 -173 112 -257 243 -256c101 1 186 50 225 152l-87 32c-25 -70 -77 -100 -138 -101c-80 -1 -149 51 -149 173s69 174 149 173c61 -1 113 -31 138 -101l87 32c-39 102 -124 151 -225 152c-131 1 -243 -83 -243 -256z" />
    <glyph glyph-name="ccaron" unicode="&#x10d;" 
d="M99 690h94l74 -93l73 93h94l-127 -119h-81zM265 77c61 1 113 31 138 101l87 -32c-39 -102 -124 -151 -225 -152c-131 -1 -243 83 -243 256s112 257 243 256c101 -1 186 -50 225 -152l-87 -32c-25 70 -77 100 -138 101c-80 1 -149 -51 -149 -173s69 -174 149 -173z" />
    <glyph glyph-name="ccedilla" unicode="&#xe7;" 
d="M265 77c61 1 113 31 138 101l87 -32c-34 -89 -104 -138 -188 -149l-27 -58c55 0 118 -23 118 -92c0 -131 -182 -138 -242 -48l45 48c38 -48 118 -54 118 0c0 48 -64 49 -104 49v38l32 61c-121 8 -220 92 -220 255c0 173 112 257 243 256c101 -1 186 -50 225 -152l-87 -32
c-25 70 -77 100 -138 101c-80 1 -149 -51 -149 -173s69 -174 149 -173z" />
    <glyph glyph-name="d" unicode="d" horiz-adv-x="546" 
d="M516 700v-700h-100v86c-36 -64 -97 -92 -176 -92c-132 0 -218 83 -218 256s86 255 218 256c79 1 140 -28 176 -92v286h100zM266 72c80 0 150 44 150 178s-70 179 -150 178c-89 -1 -146 -61 -146 -178s57 -178 146 -178z" />
    <glyph glyph-name="eth" unicode="&#xf0;" horiz-adv-x="517" 
d="M457 535c25 -63 38 -139 38 -222c0 -218 -96 -317 -237 -317c-122 0 -236 63 -236 226c0 251 298 290 385 113c-3 72 -15 129 -32 173l-100 -32l-20 52l94 31c-33 51 -76 74 -116 74c-33 0 -56 -8 -73 -20l-49 58c30 19 65 34 122 34c88 0 155 -46 199 -119l34 11l18 -53
zM258 75c73 0 143 45 143 147s-72 148 -143 147s-143 -45 -143 -147s70 -147 143 -147z" />
    <glyph glyph-name="dcaron" unicode="&#x10f;" horiz-adv-x="546" 
d="M298 846h94l74 -93l73 93h94l-127 -119h-81zM416 700h100v-700h-100v86c-36 -64 -97 -92 -176 -92c-132 0 -218 83 -218 256s86 255 218 256c79 1 140 -28 176 -92v286zM266 72c80 0 150 44 150 178s-70 179 -150 178c-89 -1 -146 -61 -146 -178s57 -178 146 -178z" />
    <glyph glyph-name="dcroat" unicode="&#x111;" horiz-adv-x="548" 
d="M516 700v-700h-100v86c-36 -64 -97 -92 -176 -92c-132 0 -218 83 -218 256s86 255 218 256c79 1 140 -28 176 -92v156h-179v73h179v57h100zM266 72c80 0 150 44 150 178s-70 179 -150 178c-89 -1 -146 -61 -146 -178s57 -178 146 -178z" />
    <glyph glyph-name="e" unicode="e" horiz-adv-x="530" 
d="M508 250c0 -14 -1 -27 -3 -40h-386c13 -93 75 -134 146 -133c60 1 118 30 145 96l86 -34c-40 -97 -132 -144 -231 -145c-131 -1 -243 83 -243 256s112 257 243 256s243 -83 243 -256zM265 423c-70 1 -131 -39 -146 -130h292c-15 91 -76 129 -146 130z" />
    <glyph glyph-name="eacute" unicode="&#xe9;" horiz-adv-x="530" 
d="M307 555h-73l58 142h92zM508 250c0 -14 -1 -27 -3 -40h-386c13 -93 75 -134 146 -133c60 1 118 30 145 96l86 -34c-40 -97 -132 -144 -231 -145c-131 -1 -243 83 -243 256s112 257 243 256s243 -83 243 -256zM265 423c-70 1 -131 -39 -146 -130h292
c-15 91 -76 129 -146 130z" />
    <glyph glyph-name="ecaron" unicode="&#x11b;" horiz-adv-x="530" 
d="M100 690h94l74 -93l73 93h94l-127 -119h-81zM508 250c0 -14 -1 -27 -3 -40h-386c13 -93 75 -134 146 -133c60 1 118 30 145 96l86 -34c-40 -97 -132 -144 -231 -145c-131 -1 -243 83 -243 256s112 257 243 256s243 -83 243 -256zM265 423c-70 1 -131 -39 -146 -130h292
c-15 91 -76 129 -146 130z" />
    <glyph glyph-name="ecircumflex" unicode="&#xea;" horiz-adv-x="530" 
d="M192 581h-94l127 119h81l127 -119h-94l-73 93zM508 250c0 -14 -1 -27 -3 -40h-386c13 -93 75 -134 146 -133c60 1 118 30 145 96l86 -34c-40 -97 -132 -144 -231 -145c-131 -1 -243 83 -243 256s112 257 243 256s243 -83 243 -256zM265 423c-70 1 -131 -39 -146 -130h292
c-15 91 -76 129 -146 130z" />
    <glyph glyph-name="edieresis" unicode="&#xeb;" horiz-adv-x="530" 
d="M246 591h-101v109h101v-109zM385 591h-101v109h101v-109zM508 250c0 -14 -1 -27 -3 -40h-386c13 -93 75 -134 146 -133c60 1 118 30 145 96l86 -34c-40 -97 -132 -144 -231 -145c-131 -1 -243 83 -243 256s112 257 243 256s243 -83 243 -256zM265 423
c-70 1 -131 -39 -146 -130h292c-15 91 -76 129 -146 130z" />
    <glyph glyph-name="edotaccent" unicode="&#x117;" horiz-adv-x="530" 
d="M316 591h-101v109h101v-109zM508 250c0 -14 -1 -27 -3 -40h-386c13 -93 75 -134 146 -133c60 1 118 30 145 96l86 -34c-40 -97 -132 -144 -231 -145c-131 -1 -243 83 -243 256s112 257 243 256s243 -83 243 -256zM265 423c-70 1 -131 -39 -146 -130h292
c-15 91 -76 129 -146 130z" />
    <glyph glyph-name="egrave" unicode="&#xe8;" horiz-adv-x="530" 
d="M231 558l-77 142h92l58 -142h-73zM508 250c0 -14 -1 -27 -3 -40h-386c13 -93 75 -134 146 -133c60 1 118 30 145 96l86 -34c-40 -97 -132 -144 -231 -145c-131 -1 -243 83 -243 256s112 257 243 256s243 -83 243 -256zM265 423c-70 1 -131 -39 -146 -130h292
c-15 91 -76 129 -146 130z" />
    <glyph glyph-name="emacron" unicode="&#x113;" horiz-adv-x="530" 
d="M405 569h-275v71h275v-71zM508 250c0 -14 -1 -27 -3 -40h-386c13 -93 75 -134 146 -133c60 1 118 30 145 96l86 -34c-40 -97 -132 -144 -231 -145c-131 -1 -243 83 -243 256s112 257 243 256s243 -83 243 -256zM265 423c-70 1 -131 -39 -146 -130h292
c-15 91 -76 129 -146 130z" />
    <glyph glyph-name="eogonek" unicode="&#x119;" horiz-adv-x="530" 
d="M508 250c0 -14 -1 -27 -3 -40h-386c13 -93 75 -134 146 -133c60 1 118 30 145 96l86 -34c-40 -97 -132 -144 -231 -145c-26 -58 -50 -154 57 -122l41 -69c-58 -48 -291 -31 -151 195c-107 20 -190 103 -190 252c0 173 112 257 243 256s243 -83 243 -256zM265 423
c-70 1 -131 -39 -146 -130h292c-15 91 -76 129 -146 130z" />
    <glyph glyph-name="f" unicode="f" horiz-adv-x="295" 
d="M273 608c-63 0 -81 -18 -81 -72v-30h81v-79h-81v-427h-100v427h-82v79h82v30c0 102 24 164 181 164v-92z" />
    <glyph glyph-name="g" unicode="g" horiz-adv-x="546" 
d="M516 500v-493c0 -173 -119 -257 -258 -256c-101 1 -186 50 -225 152l87 32c25 -70 77 -100 138 -101c88 -1 158 51 158 173v79c-36 -64 -97 -92 -176 -92c-132 0 -218 83 -218 256s86 255 218 256c79 1 140 -28 176 -92v86h100zM266 72c80 0 150 44 150 178
s-70 179 -150 178c-89 -1 -146 -61 -146 -178s57 -178 146 -178z" />
    <glyph glyph-name="uni0123" unicode="&#x123;" horiz-adv-x="546" 
d="M287 555h-73l58 142h92zM516 500v-493c0 -173 -119 -257 -258 -256c-101 1 -186 50 -225 152l87 32c25 -70 77 -100 138 -101c88 -1 158 51 158 173v79c-36 -64 -97 -92 -176 -92c-132 0 -218 83 -218 256s86 255 218 256c79 1 140 -28 176 -92v86h100zM266 72
c80 0 150 44 150 178s-70 179 -150 178c-89 -1 -146 -61 -146 -178s57 -178 146 -178z" />
    <glyph glyph-name="h" unicode="h" horiz-adv-x="486" 
d="M320 508c140 0 141 -132 141 -226v-282h-100v282c0 73 -15 143 -78 143c-43 0 -153 -9 -153 -238v-187h-99v700h99v-325c41 93 114 133 190 133z" />
    <glyph glyph-name="i" unicode="i" horiz-adv-x="163" 
d="M30 700h103v-111h-103v111zM131 0v500h-99v-500h99z" />
    <glyph glyph-name="iacute" unicode="&#xed;" horiz-adv-x="159" 
d="M104 697h92l-77 -142h-73zM129 0v500h-99v-500h99z" />
    <glyph glyph-name="icircumflex" unicode="&#xee;" horiz-adv-x="195" 
d="M285 581h-94l-73 93l-74 -93h-94l127 119h81zM49 500h99v-500h-99v500z" />
    <glyph glyph-name="idieresis" unicode="&#xef;" horiz-adv-x="150" 
d="M-65 700h101v-109h-101v109zM74 700h101v-109h-101v109zM124 0v500h-99v-500h99z" />
    <glyph glyph-name="igrave" unicode="&#xec;" horiz-adv-x="159" 
d="M55 558l-77 142h92l58 -142h-73zM129 0v500h-99v-500h99z" />
    <glyph glyph-name="imacron" unicode="&#x12b;" horiz-adv-x="175" 
d="M225 680v-71h-275v71h275zM137 0v500h-99v-500h99z" />
    <glyph glyph-name="iogonek" unicode="&#x12f;" horiz-adv-x="163" 
d="M133 589h-103v111h103v-111zM162 -226c-61 -50 -312 -29 -130 227v499h99v-500h-47c-25 -33 -98 -198 37 -157z" />
    <glyph glyph-name="j" unicode="j" horiz-adv-x="174" 
d="M144 700v-111h-104v111h104zM42 500h100v-500c0 -98 -33 -160 -151 -160h-22v88h22c40 0 51 21 51 72v500z" />
    <glyph glyph-name="k" unicode="k" horiz-adv-x="493" 
d="M253 286l219 -285h-113l-169 219l-60 -63v-157h-100v700h100v-422l207 222h120zM473 0l-1 1h1v-1z" />
    <glyph glyph-name="uni0137" unicode="&#x137;" horiz-adv-x="493" 
d="M253 286l219 -285h-113l-169 219l-60 -63v-157h-100v700h100v-422l207 222h120zM473 0l-1 1h1v-1zM207 -34l81 -1l-61 -125h-50z" />
    <glyph glyph-name="l" unicode="l" horiz-adv-x="169" 
d="M134 0v700h-99v-700h99z" />
    <glyph glyph-name="lacute" unicode="&#x13a;" horiz-adv-x="169" 
d="M103 900h92l-77 -142h-73zM134 0v700h-99v-700h99z" />
    <glyph glyph-name="lcaron" unicode="&#x13e;" horiz-adv-x="169" 
d="M-83 890h94l74 -93l73 93h94l-127 -119h-81zM35 700h99v-700h-99v700z" />
    <glyph glyph-name="uni013C" unicode="&#x13c;" horiz-adv-x="159" 
d="M129 0v700h-99v-700h99zM124 -35l-61 -125h-60l40 126z" />
    <glyph glyph-name="lslash" unicode="&#x142;" horiz-adv-x="169" 
d="M134 342v-342h-99v306l-106 -37l-20 58l126 45v328h99v-293l103 36l20 -58z" />
    <glyph glyph-name="m" unicode="m" horiz-adv-x="756" 
d="M590 508c140 0 141 -132 141 -226v-282h-100v282c0 73 -15 143 -78 143c-50 0 -123 -9 -123 -238v-187h-100v282c0 73 -15 143 -78 143c-50 0 -123 -9 -123 -238v-187h-99v500h99v-104c34 78 90 112 160 112c93 0 125 -59 136 -125c32 87 91 125 165 125z" />
    <glyph glyph-name="n" unicode="n" horiz-adv-x="476" 
d="M314 508c140 0 140 -132 140 -226v-282h-100v282c0 73 -14 143 -77 143c-43 0 -148 -9 -148 -238v-187h-99v500h99v-121c40 90 110 129 185 129z" />
    <glyph glyph-name="nacute" unicode="&#x144;" horiz-adv-x="476" 
d="M277 558h-73l58 142h92zM314 508c140 0 140 -132 140 -226v-282h-100v282c0 73 -14 143 -77 143c-43 0 -148 -9 -148 -238v-187h-99v500h99v-121c40 90 110 129 185 129z" />
    <glyph glyph-name="ncaron" unicode="&#x148;" horiz-adv-x="476" 
d="M76 690h94l74 -93l73 93h94l-127 -119h-81zM314 508c140 0 140 -132 140 -226v-282h-100v282c0 73 -14 143 -77 143c-43 0 -148 -9 -148 -238v-187h-99v500h99v-121c40 90 110 129 185 129z" />
    <glyph glyph-name="uni0146" unicode="&#x146;" horiz-adv-x="486" 
d="M314 508c140 0 140 -132 140 -226v-282h-100v282c0 73 -14 143 -77 143c-43 0 -148 -9 -148 -238v-187h-99v500h99v-121c40 90 110 129 185 129zM216 -34l81 -1l-61 -125h-60z" />
    <glyph glyph-name="eng" unicode="&#x14b;" horiz-adv-x="486" 
d="M320 508c140 0 141 -132 141 -226v-282c0 -98 -33 -160 -151 -160h-22v88h22c40 0 51 21 51 72v282c0 73 -15 143 -78 143c-43 0 -153 -9 -153 -238v-187h-99v500h99v-125c41 93 114 133 190 133z" />
    <glyph glyph-name="ntilde" unicode="&#xf1;" horiz-adv-x="476" 
d="M186 607c-43 2 -61 -27 -75 -57l-51 41c29 58 61 85 129 81c68 -3 81 -55 122 -57c35 -2 50 15 63 51l63 -23c-11 -35 -53 -97 -129 -93c-65 4 -72 54 -122 57zM314 508c140 0 140 -132 140 -226v-282h-100v282c0 73 -14 143 -77 143c-43 0 -148 -9 -148 -238v-187h-99
v500h99v-121c40 90 110 129 185 129z" />
    <glyph glyph-name="o" unicode="o" horiz-adv-x="536" 
d="M514 250c0 -173 -114 -256 -246 -256s-246 83 -246 256s114 257 246 256s246 -83 246 -256zM419 250c0 122 -70 172 -151 173s-151 -51 -151 -173s70 -173 151 -173s151 51 151 173z" />
    <glyph glyph-name="oacute" unicode="&#xf3;" horiz-adv-x="536" 
d="M294 697h92l-77 -142h-73zM514 250c0 -173 -114 -256 -246 -256s-246 83 -246 256s114 257 246 256s246 -83 246 -256zM419 250c0 122 -70 172 -151 173s-151 -51 -151 -173s70 -173 151 -173s151 51 151 173z" />
    <glyph glyph-name="ocircumflex" unicode="&#xf4;" horiz-adv-x="536" 
d="M194 581h-94l127 119h81l127 -119h-94l-73 93zM268 506c132 -1 246 -83 246 -256s-114 -256 -246 -256s-246 83 -246 256s114 257 246 256zM268 77c81 0 151 51 151 173s-70 172 -151 173s-151 -51 -151 -173s70 -173 151 -173z" />
    <glyph glyph-name="odieresis" unicode="&#xf6;" horiz-adv-x="536" 
d="M147 700h101v-109h-101v109zM286 700h101v-109h-101v109zM514 250c0 -173 -114 -256 -246 -256s-246 83 -246 256s114 257 246 256s246 -83 246 -256zM419 250c0 122 -70 172 -151 173s-151 -51 -151 -173s70 -173 151 -173s151 51 151 173z" />
    <glyph glyph-name="ograve" unicode="&#xf2;" horiz-adv-x="536" 
d="M233 558l-77 142h92l58 -142h-73zM514 250c0 -173 -114 -256 -246 -256s-246 83 -246 256s114 257 246 256s246 -83 246 -256zM419 250c0 122 -70 172 -151 173s-151 -51 -151 -173s70 -173 151 -173s151 51 151 173z" />
    <glyph glyph-name="ohungarumlaut" unicode="&#x151;" horiz-adv-x="536" 
d="M233 700h92l-97 -142h-53zM363 700h92l-97 -142h-53zM514 250c0 -173 -114 -256 -246 -256s-246 83 -246 256s114 257 246 256s246 -83 246 -256zM419 250c0 122 -70 172 -151 173s-151 -51 -151 -173s70 -173 151 -173s151 51 151 173z" />
    <glyph glyph-name="omacron" unicode="&#x14d;" horiz-adv-x="536" 
d="M407 640v-71h-275v71h275zM514 250c0 -173 -114 -256 -246 -256s-246 83 -246 256s114 257 246 256s246 -83 246 -256zM419 250c0 122 -70 172 -151 173s-151 -51 -151 -173s70 -173 151 -173s151 51 151 173z" />
    <glyph glyph-name="oslash" unicode="&#xf8;" horiz-adv-x="560" 
d="M484 398c24 -38 38 -88 38 -148c0 -173 -114 -256 -246 -256c-56 0 -109 15 -151 46l-60 -60l-55 55l61 61c-26 39 -41 91 -41 154c0 173 114 257 246 256c58 0 113 -17 156 -50l63 63l55 -55zM125 250c0 -34 5 -62 15 -85l229 228c-26 20 -58 30 -93 30
c-81 1 -151 -51 -151 -173zM427 250c0 31 -4 57 -12 79l-227 -226c25 -18 56 -26 88 -26c81 0 151 51 151 173z" />
    <glyph glyph-name="otilde" unicode="&#xf5;" horiz-adv-x="536" 
d="M86 591c29 58 61 85 129 81c68 -3 81 -55 122 -57c35 -2 50 15 63 51l63 -23c-11 -35 -53 -97 -129 -93c-65 4 -72 54 -122 57c-43 2 -61 -27 -75 -57zM514 250c0 -173 -114 -256 -246 -256s-246 83 -246 256s114 257 246 256s246 -83 246 -256zM419 250
c0 122 -70 172 -151 173s-151 -51 -151 -173s70 -173 151 -173s151 51 151 173z" />
    <glyph glyph-name="oe" unicode="&#x153;" horiz-adv-x="928" 
d="M906 250c0 -14 -1 -27 -3 -40h-386c13 -93 75 -134 146 -133c60 1 118 30 145 96l86 -34c-40 -97 -132 -144 -231 -145c-84 -1 -155 33 -196 103c-42 -69 -115 -103 -199 -103c-132 0 -246 83 -246 256s114 257 246 256c84 -1 157 -34 199 -103c41 70 112 104 196 103
c131 -1 243 -83 243 -256zM268 77c81 0 152 51 152 173s-71 172 -152 173s-151 -51 -151 -173s70 -173 151 -173zM663 423c-70 1 -131 -39 -146 -130h292c-15 91 -76 129 -146 130z" />
    <glyph glyph-name="p" unicode="p" horiz-adv-x="546" 
d="M306 506c132 -1 218 -83 218 -256s-86 -256 -218 -256c-79 0 -140 28 -176 92v-286h-98l-2 700h100v-86c36 64 97 93 176 92zM280 72c89 0 146 61 146 178s-57 177 -146 178c-80 1 -150 -44 -150 -178s70 -178 150 -178z" />
    <glyph glyph-name="thorn" unicode="&#xfe;" horiz-adv-x="546" 
d="M306 506c132 -1 218 -83 218 -256s-86 -256 -218 -256c-79 0 -140 28 -176 92v-286h-98l-2 900h100v-286c36 64 97 93 176 92zM280 72c89 0 146 61 146 178s-57 177 -146 178c-80 1 -150 -44 -150 -178s70 -178 150 -178z" />
    <glyph glyph-name="q" unicode="q" horiz-adv-x="546" 
d="M416 500h100v-700h-100v286c-36 -64 -97 -92 -176 -92c-132 0 -218 83 -218 256s86 255 218 256c79 1 140 -28 176 -92v86zM266 72c80 0 150 44 150 178s-70 179 -150 178c-89 -1 -146 -61 -146 -178s57 -178 146 -178z" />
    <glyph glyph-name="r" unicode="r" horiz-adv-x="321" 
d="M301 508v-88c-115 0 -171 -50 -171 -233v-187h-100v500h100v-92c32 70 87 100 169 100h2z" />
    <glyph glyph-name="racute" unicode="&#x155;" horiz-adv-x="321" 
d="M93 558h-73l58 142h92zM301 508v-88c-115 0 -171 -50 -171 -233v-187h-100v500h100v-92c32 70 87 100 169 100h2z" />
    <glyph glyph-name="rcaron" unicode="&#x159;" horiz-adv-x="600" 
d="M10 690h94l74 -93l73 93h94l-127 -119h-81zM130 408c32 70 87 100 169 100h2v-88c-115 0 -171 -50 -171 -233v-187h-100v500h100v-92z" />
    <glyph glyph-name="uni0157" unicode="&#x157;" horiz-adv-x="326" 
d="M301 508v-88c-115 0 -171 -50 -171 -233v-187h-100v500h100v-92c32 70 87 100 169 100h2zM41 -34l81 -1l-61 -125h-60z" />
    <glyph glyph-name="s" unicode="s" horiz-adv-x="465" 
d="M21 135c16 -129 160 -141 210 -141c55 0 212 13 212 166c0 213 -315 79 -315 195c0 58 46 78 103 78c56 0 98 -18 110 -70l90 26c-22 111 -150 118 -200 118c-53 0 -201 -8 -201 -152c0 -210 315 -83 315 -195c0 -60 -56 -86 -114 -86c-56 0 -106 26 -115 81z" />
    <glyph glyph-name="sacute" unicode="&#x15b;" horiz-adv-x="465" 
d="M251 700h92l-77 -142h-73zM21 135c16 -129 160 -141 210 -141c55 0 212 13 212 166c0 213 -315 79 -315 195c0 58 46 78 103 78c56 0 98 -18 110 -70l90 26c-22 111 -150 118 -200 118c-53 0 -201 -8 -201 -152c0 -210 315 -83 315 -195c0 -60 -56 -86 -114 -86
c-56 0 -106 26 -115 81z" />
    <glyph glyph-name="scaron" unicode="&#x161;" horiz-adv-x="465" 
d="M65 690h94l74 -93l73 93h94l-127 -119h-81zM128 355c0 -116 315 18 315 -195c0 -153 -157 -166 -212 -166c-50 0 -194 12 -210 141l95 20c9 -55 59 -81 115 -81c58 0 114 26 114 86c0 112 -315 -15 -315 195c0 144 148 152 201 152c50 0 178 -7 200 -118l-90 -26
c-12 52 -54 70 -110 70c-57 0 -103 -20 -103 -78z" />
    <glyph glyph-name="scedilla" unicode="&#x15f;" horiz-adv-x="465" 
d="M443 160c0 -126 -107 -157 -175 -164l-27 -57c55 0 118 -23 118 -92c0 -131 -182 -138 -242 -48l45 48c38 -48 118 -54 118 0c0 48 -64 49 -104 49v38l32 61c-61 4 -173 27 -187 140l95 20c9 -55 59 -81 115 -81c58 0 114 26 114 86c0 112 -315 -15 -315 195
c0 144 148 152 201 152c50 0 178 -7 200 -118l-90 -26c-12 52 -54 70 -110 70c-57 0 -103 -20 -103 -78c0 -116 315 18 315 -195z" />
    <glyph glyph-name="germandbls" unicode="&#xdf;" horiz-adv-x="497" 
d="M331 388c86 -11 144 -47 144 -176c0 -149 -99 -212 -259 -212v82c104 0 160 43 160 130s-56 130 -160 130v88c82 0 136 22 136 97c0 74 -41 97 -123 97s-100 -23 -100 -97v-527h-99v527c0 134 63 176 199 176s219 -42 219 -176c0 -92 -45 -127 -117 -139z" />
    <glyph glyph-name="t" unicode="t" horiz-adv-x="295" 
d="M191 427v-299c0 -30 16 -37 40 -37h42v-91h-42c-124 0 -139 30 -139 128v299h-82v79h82v94l99 40v-134h82v-79h-82z" />
    <glyph glyph-name="tbar" unicode="&#x167;" horiz-adv-x="295" 
d="M191 427v-81h82v-79h-82v-139c0 -30 16 -37 40 -37h42v-91h-42c-124 0 -139 30 -139 128v139h-82v79h82v81h-82v79h82v94l99 40v-134h82v-79h-82z" />
    <glyph glyph-name="tcaron" unicode="&#x165;" horiz-adv-x="295" 
d="M-27 790h94l74 -93l73 93h94l-127 -119h-81zM191 506h82v-79h-82v-299c0 -30 16 -37 40 -37h42v-91h-42c-124 0 -139 30 -139 128v299h-82v79h82v94l99 40v-134z" />
    <glyph glyph-name="uni0163" unicode="&#x163;" horiz-adv-x="295" 
d="M163 -48c55 0 118 -23 118 -92c0 -131 -182 -138 -242 -48l45 48c38 -48 118 -54 118 0c0 48 -64 49 -104 49v38l35 67c-35 18 -41 52 -41 114v299h-82v79h82v94l99 40v-134h82v-79h-82v-299c0 -30 16 -37 40 -37h42v-91h-42c-17 0 -32 1 -45 2z" />
    <glyph glyph-name="u" unicode="u" horiz-adv-x="481" 
d="M451 500v-500h-100v111c-37 -83 -101 -119 -179 -119c-140 0 -142 132 -142 226v282h100v-282c0 -73 16 -143 79 -143c33 0 142 8 142 238v187h100z" />
    <glyph glyph-name="uacute" unicode="&#xfa;" horiz-adv-x="481" 
d="M281 555h-73l58 142h92zM451 500v-500h-100v111c-37 -83 -101 -119 -179 -119c-140 0 -142 132 -142 226v282h100v-282c0 -73 16 -143 79 -143c33 0 142 8 142 238v187h100z" />
    <glyph glyph-name="ucircumflex" unicode="&#xfb;" horiz-adv-x="481" 
d="M166 581h-94l127 119h81l127 -119h-94l-73 93zM451 500v-500h-100v111c-37 -83 -101 -119 -179 -119c-140 0 -142 132 -142 226v282h100v-282c0 -73 16 -143 79 -143c33 0 142 8 142 238v187h100z" />
    <glyph glyph-name="udieresis" unicode="&#xfc;" horiz-adv-x="481" 
d="M220 591h-101v109h101v-109zM359 591h-101v109h101v-109zM451 500v-500h-100v111c-37 -83 -101 -119 -179 -119c-140 0 -142 132 -142 226v282h100v-282c0 -73 16 -143 79 -143c33 0 142 8 142 238v187h100z" />
    <glyph glyph-name="ugrave" unicode="&#xf9;" horiz-adv-x="481" 
d="M205 558l-77 142h92l58 -142h-73zM451 500v-500h-100v111c-37 -83 -101 -119 -179 -119c-140 0 -142 132 -142 226v282h100v-282c0 -73 16 -143 79 -143c33 0 142 8 142 238v187h100z" />
    <glyph glyph-name="uhungarumlaut" unicode="&#x171;" horiz-adv-x="481" 
d="M200 558h-53l58 142h92zM277 558l58 142h92l-97 -142h-53zM451 500v-500h-100v111c-37 -83 -101 -119 -179 -119c-140 0 -142 132 -142 226v282h100v-282c0 -73 16 -143 79 -143c33 0 142 8 142 238v187h100z" />
    <glyph glyph-name="umacron" unicode="&#x16b;" horiz-adv-x="481" 
d="M379 569h-275v71h275v-71zM451 500v-500h-100v111c-37 -83 -101 -119 -179 -119c-140 0 -142 132 -142 226v282h100v-282c0 -73 16 -143 79 -143c33 0 142 8 142 238v187h100z" />
    <glyph glyph-name="uogonek" unicode="&#x173;" horiz-adv-x="481" 
d="M451 500v-500h-100v111c-27 -62 -70 -98 -122 -112c-28 -56 -59 -164 53 -130l41 -69c-58 -47 -289 -31 -153 192c-138 1 -140 133 -140 226v282h100v-282c0 -73 16 -143 79 -143c33 0 142 8 142 238v187h100z" />
    <glyph glyph-name="uring" unicode="&#x16f;" horiz-adv-x="481" 
d="M240 544c-51 0 -91 40 -91 91c0 50 40 90 91 90c50 0 90 -40 90 -90c0 -51 -40 -91 -90 -91zM240 672c-21 0 -38 -17 -38 -37c0 -21 17 -38 38 -38c20 0 37 17 37 38c0 20 -17 37 -37 37zM451 500v-500h-100v111c-37 -83 -101 -119 -179 -119c-140 0 -142 132 -142 226
v282h100v-282c0 -73 16 -143 79 -143c33 0 142 8 142 238v187h100z" />
    <glyph glyph-name="v" unicode="v" horiz-adv-x="501" 
d="M481 500l-187 -500h-87l-187 500h105l126 -371l125 371h105z" />
    <glyph glyph-name="w" unicode="w" horiz-adv-x="714" 
d="M694 500l-157 -500h-84l-96 327l-96 -327h-84l-157 500h102l95 -343l89 343h102l89 -343l95 343h102z" />
    <glyph glyph-name="wacute" unicode="&#x1e83;" horiz-adv-x="714" 
d="M399 555h-73l58 142h92zM694 500l-157 -500h-84l-96 327l-96 -327h-84l-157 500h102l95 -343l89 343h102l89 -343l95 343h102z" />
    <glyph glyph-name="wcircumflex" unicode="&#x175;" horiz-adv-x="714" 
d="M284 581h-94l127 119h81l127 -119h-94l-73 93zM694 500l-157 -500h-84l-96 327l-96 -327h-84l-157 500h102l95 -343l89 343h102l89 -343l95 343h102z" />
    <glyph glyph-name="wdieresis" unicode="&#x1e85;" horiz-adv-x="714" 
d="M338 591h-101v109h101v-109zM477 591h-101v109h101v-109zM694 500l-157 -500h-84l-96 327l-96 -327h-84l-157 500h102l95 -343l89 343h102l89 -343l95 343h102z" />
    <glyph glyph-name="wgrave" unicode="&#x1e81;" horiz-adv-x="714" 
d="M323 558l-77 142h92l58 -142h-73zM694 500l-157 -500h-84l-96 327l-96 -327h-84l-157 500h102l95 -343l89 343h102l89 -343l95 343h102z" />
    <glyph glyph-name="x" unicode="x" horiz-adv-x="490" 
d="M362 0l-117 174l-117 -174h-113l178 251l-2 4l-174 245h114l114 -171l114 171h114l-174 -245l-2 -4l178 -251h-113z" />
    <glyph glyph-name="y" unicode="y" horiz-adv-x="497" 
d="M482 500l-214 -571c-43 -129 -79 -144 -166 -144h-27v87h27c47 0 57 10 75 57l25 72l-187 499h109l124 -366l125 366h109z" />
    <glyph glyph-name="yacute" unicode="&#xfd;" horiz-adv-x="497" 
d="M289 555h-73l58 142h92zM482 500l-214 -571c-43 -129 -79 -144 -166 -144h-27v87h27c47 0 57 10 75 57l25 72l-187 499h109l124 -366l125 366h109z" />
    <glyph glyph-name="ycircumflex" unicode="&#x177;" horiz-adv-x="497" 
d="M174 581h-94l127 119h81l127 -119h-94l-73 93zM482 500l-214 -571c-43 -129 -79 -144 -166 -144h-27v87h27c47 0 57 10 75 57l25 72l-187 499h109l124 -366l125 366h109z" />
    <glyph glyph-name="ydieresis" unicode="&#xff;" horiz-adv-x="497" 
d="M228 591h-101v109h101v-109zM367 591h-101v109h101v-109zM482 500l-214 -571c-43 -129 -79 -144 -166 -144h-27v87h27c47 0 57 10 75 57l25 72l-187 499h109l124 -366l125 366h109z" />
    <glyph glyph-name="ygrave" unicode="&#x1ef3;" horiz-adv-x="497" 
d="M213 558l-77 142h92l58 -142h-73zM482 500l-214 -571c-43 -129 -79 -144 -166 -144h-27v87h27c47 0 57 10 75 57l25 72l-187 499h109l124 -366l125 366h109z" />
    <glyph glyph-name="z" unicode="z" horiz-adv-x="455" 
d="M430 79v-79h-405v79l286 342h-278v79h394v-79l-286 -342h289z" />
    <glyph glyph-name="zacute" unicode="&#x17a;" horiz-adv-x="455" 
d="M263 558h-73l58 142h92zM430 79v-79h-405v79l286 342h-278v79h394v-79l-286 -342h289z" />
    <glyph glyph-name="zcaron" unicode="&#x17e;" horiz-adv-x="455" 
d="M62 690h94l74 -93l73 93h94l-127 -119h-81zM430 79v-79h-405v79l286 342h-278v79h394v-79l-286 -342h289z" />
    <glyph glyph-name="zdotaccent" unicode="&#x17c;" horiz-adv-x="455" 
d="M278 591h-101v109h101v-109zM430 79v-79h-405v79l286 342h-278v79h394v-79l-286 -342h289z" />
    <glyph glyph-name="zero" unicode="0" horiz-adv-x="524" 
d="M262 706c227 0 240 -231 240 -358s-13 -358 -240 -358s-240 231 -240 358s13 358 240 358zM262 67c115 0 141 132 141 281s-26 281 -141 281s-141 -132 -141 -281s26 -281 141 -281z" />
    <glyph glyph-name="one" unicode="1" horiz-adv-x="246" 
d="M222 0h-97v567c-15 -50 -46 -85 -110 -85v96c57 0 110 14 110 122h97v-700z" />
    <glyph glyph-name="two" unicode="2" horiz-adv-x="497" 
d="M482 89v-89h-460v20c0 345 361 311 361 480c0 90 -48 126 -129 126c-79 0 -124 -33 -132 -117l-91 17c13 121 100 180 223 180c132 0 224 -68 224 -206c0 -224 -299 -186 -350 -411h354z" />
    <glyph glyph-name="three" unicode="3" horiz-adv-x="515" 
d="M384 363c66 -24 109 -74 109 -163c0 -138 -104 -206 -236 -206c-123 0 -222 59 -235 180l95 17c8 -82 61 -114 140 -114c81 0 137 34 137 123c0 86 -56 118 -137 119h-64l10 82h54c73 0 118 38 118 117c0 81 -45 110 -118 110c-71 0 -112 -28 -119 -103l-90 12
c8 112 95 169 209 168c120 -1 210 -62 210 -187c0 -75 -32 -126 -83 -155z" />
    <glyph glyph-name="four" unicode="4" horiz-adv-x="558" 
d="M533 183h-106v-183h-97v183h-315v86l261 431h151v-431h116zM330 269v355l-215 -355h215z" />
    <glyph glyph-name="five" unicode="5" horiz-adv-x="516" 
d="M131 410c111 98 363 50 363 -188c0 -163 -114 -226 -236 -226c-116 0 -226 57 -236 203l93 13c6 -95 72 -137 143 -137c73 0 141 45 141 147c0 235 -273 192 -282 72h-92l50 406h404l-10 -83h-310z" />
    <glyph glyph-name="six" unicode="6" horiz-adv-x="517" 
d="M110 335c87 177 385 138 385 -113c0 -163 -114 -226 -236 -226c-141 0 -237 99 -237 317s89 392 262 392c157 0 196 -98 209 -161l-83 -25c-11 39 -26 114 -126 114c-78 0 -165 -85 -174 -298zM259 75c73 0 143 45 143 147s-72 146 -143 147s-143 -45 -143 -147
s70 -147 143 -147z" />
    <glyph glyph-name="seven" unicode="7" horiz-adv-x="478" 
d="M463 700v-86l-348 -614h-100l348 614h-347v86h447z" />
    <glyph glyph-name="eight" unicode="8" horiz-adv-x="516" 
d="M386 370c66 -27 109 -81 109 -170c0 -138 -105 -206 -237 -206s-237 68 -237 206c0 88 43 143 108 171c-50 26 -81 73 -81 147c0 125 90 188 210 187s210 -62 210 -187c0 -74 -32 -121 -82 -148zM258 634c-73 0 -119 -34 -119 -116c0 -78 46 -122 119 -122
s119 44 119 122c0 82 -46 116 -119 116zM258 75c81 0 138 37 138 125c0 86 -57 128 -138 129s-138 -43 -138 -129c0 -88 57 -125 138 -125z" />
    <glyph glyph-name="nine" unicode="9" horiz-adv-x="517" 
d="M258 705c141 0 237 -99 237 -317s-89 -392 -262 -392c-157 0 -196 98 -209 161l83 25c11 -39 26 -114 126 -114c78 0 165 85 174 298c-87 -177 -385 -138 -385 113c0 163 114 226 236 226zM258 332c71 -1 143 45 143 147s-70 147 -143 147s-143 -45 -143 -147
s72 -146 143 -147z" />
    <glyph glyph-name="fraction" unicode="&#x2044;" horiz-adv-x="592" 
d="M114 0l463 700h-99l-463 -700h99z" />
    <glyph glyph-name="period" unicode="." horiz-adv-x="141" 
d="M20 101h101v-109h-101v109z" />
    <glyph glyph-name="comma" unicode="," horiz-adv-x="141" 
d="M121 101v-109c0 -104 -38 -118 -91 -118h-10v51h10c42 0 38 41 38 67h-48v109h101z" />
    <glyph glyph-name="colon" unicode=":" horiz-adv-x="141" 
d="M20 422h101v-109h-101v109zM20 101h101v-109h-101v109z" />
    <glyph glyph-name="semicolon" unicode=";" horiz-adv-x="123" 
d="M121 422v-109h-101v109h101zM20 101h101v-109c0 -104 -38 -118 -91 -118h-10v51h10c42 0 38 41 38 67h-48v109z" />
    <glyph glyph-name="ellipsis" unicode="&#x2026;" horiz-adv-x="595" 
d="M20 101h101v-109h-101v109zM212 101h101v-109h-101v109zM505 101v-109h-101v109h101z" />
    <glyph glyph-name="exclam" unicode="!" horiz-adv-x="147" 
d="M104 165l21 206v329h-103v-329l21 -206h61zM23 101h101v-109h-101v109z" />
    <glyph glyph-name="exclamdown" unicode="&#xa1;" horiz-adv-x="147" 
d="M124 391h-101v109h101v-109zM43 327l-21 -206v-329h103v329l-21 206h-61z" />
    <glyph glyph-name="question" unicode="?" horiz-adv-x="470" 
d="M233 706c107 0 222 -54 222 -206c0 -177 -205 -134 -205 -317v-17h-96v17c0 228 204 201 204 317c0 67 -44 128 -125 128c-83 0 -125 -61 -125 -128h-93c0 152 115 206 218 206zM151 101h101v-109h-101v109z" />
    <glyph glyph-name="questiondown" unicode="&#xbf;" horiz-adv-x="470" 
d="M319 404h-101v109h101v-109zM455 5c0 -152 -115 -206 -218 -206c-107 0 -222 54 -222 206c0 195 205 126 205 317v17h96v-17c0 -231 -204 -191 -204 -317c0 -67 38 -128 125 -128c83 0 125 61 125 128h93z" />
    <glyph glyph-name="periodcentered" unicode="&#xb7;" horiz-adv-x="141" 
d="M20 422h101v-109h-101v109z" />
    <glyph glyph-name="bullet" unicode="&#x2022;" horiz-adv-x="322" 
d="M161 153c-78 0 -141 63 -141 141s63 141 141 141s141 -63 141 -141s-63 -141 -141 -141z" />
    <glyph glyph-name="asterisk" unicode="*" horiz-adv-x="346" 
d="M219 545l107 -66v-1l-37 -54h-1l-88 69l6 -111v-1h-66v1l6 111l-88 -69l-38 54l1 1l106 66l-107 66v1l37 54h1l88 -69l-6 111v1h66v-1l-6 -111l88 69l38 -54l-1 -1z" />
    <glyph glyph-name="numbersign" unicode="#" horiz-adv-x="694" 
d="M526 405l-30 -116h128l-28 -95h-125l-50 -194h-94l50 194h-138l-50 -194h-94l50 194h-130l28 95h127l30 116h-130l28 95h126l52 200h94l-52 -200h138l52 200h94l-52 -200h129l-28 -95h-125zM432 405h-138l-30 -116h138z" />
    <glyph glyph-name="slash" unicode="/" horiz-adv-x="525" 
d="M114 -95l396 795h-99l-396 -795h99z" />
    <glyph glyph-name="backslash" unicode="\" horiz-adv-x="525" 
d="M114 700h-99l396 -795h99z" />
    <glyph glyph-name="parenleft" unicode="(" horiz-adv-x="257" 
d="M20 308c0 245 149 392 149 392h73s-124 -129 -124 -392s124 -392 124 -392h-73s-149 147 -149 392z" />
    <glyph glyph-name="parenright" unicode=")" horiz-adv-x="257" 
d="M237 308c0 -245 -149 -392 -149 -392h-73s124 129 124 392s-124 392 -124 392h73s149 -147 149 -392z" />
    <glyph glyph-name="braceleft" unicode="{" horiz-adv-x="274" 
d="M195 372c0 -44 -16 -69 -53 -82c37 -14 53 -39 53 -83v-199c0 -49 14 -57 49 -57v-72c-69 0 -138 17 -138 129v199c0 51 -53 47 -91 47v71c38 0 91 -4 91 47v199c0 112 69 129 138 129v-72c-35 0 -49 -8 -49 -57v-199z" />
    <glyph glyph-name="braceright" unicode="}" horiz-adv-x="274" 
d="M168 372c0 -51 53 -47 91 -47v-71c-38 0 -91 4 -91 -47v-199c0 -112 -69 -129 -138 -129v72c35 0 49 8 49 57v199c0 44 16 69 53 83c-37 13 -53 38 -53 82v199c0 49 -14 57 -49 57v72c69 0 138 -17 138 -129v-199z" />
    <glyph glyph-name="bracketleft" unicode="[" horiz-adv-x="298" 
d="M129 611v-654h139v-89h-238v832h238v-89h-139z" />
    <glyph glyph-name="bracketright" unicode="]" horiz-adv-x="298" 
d="M268 -132h-238v89h139v654h-139v89h238v-832z" />
    <glyph glyph-name="hyphen" unicode="-" horiz-adv-x="378" 
d="M348 363v-89h-318v89h318z" />
    <glyph glyph-name="endash" unicode="&#x2013;" horiz-adv-x="523" 
d="M493 329v-89h-463v89h463z" />
    <glyph glyph-name="emdash" unicode="&#x2014;" horiz-adv-x="807" 
d="M777 329v-89h-747v89h747z" />
    <glyph glyph-name="underscore" unicode="_" horiz-adv-x="524" 
d="M474 -28v-89h-424v89h424z" />
    <glyph glyph-name="quotesinglbase" unicode="&#x201a;" horiz-adv-x="600" 
d="M121 101v-109c0 -104 -38 -118 -91 -118h-10v51h10c42 0 38 41 38 67h-48v109h101z" />
    <glyph glyph-name="quotedblbase" unicode="&#x201e;" horiz-adv-x="600" 
d="M121 101v-109c0 -104 -38 -118 -91 -118h-10v51h10c42 0 38 41 38 67h-48v109h101z" />
    <glyph glyph-name="quotedblleft" unicode="&#x201c;" horiz-adv-x="274" 
d="M77 507l50 193h-97l-10 -47v-146h57zM204 507l50 193h-97l-10 -47v-146h57z" />
    <glyph glyph-name="quotedblright" unicode="&#x201d;" horiz-adv-x="274" 
d="M127 653l-10 47h-97l50 -193h57v146zM254 653l-10 47h-97l50 -193h57v146z" />
    <glyph glyph-name="quoteleft" unicode="&#x2018;" horiz-adv-x="147" 
d="M77 507l50 193h-97l-10 -47v-146h57z" />
    <glyph glyph-name="quoteright" unicode="&#x2019;" horiz-adv-x="147" 
d="M127 653l-10 47h-97l50 -193h57v146z" />
    <glyph glyph-name="guillemotleft" unicode="&#xab;" horiz-adv-x="470" 
d="M83 277l152 -100v-89l-220 144v89l220 144v-89zM455 374l-152 -99l152 -100v-89l-220 144v89l220 144v-89z" />
    <glyph glyph-name="guillemotright" unicode="&#xbb;" horiz-adv-x="470" 
d="M455 321v-89l-220 -144v89l152 100l-152 99v89zM235 230l-220 -144v89l152 100l-152 99v89l220 -144v-89z" />
    <glyph glyph-name="guilsinglleft" unicode="&#x2039;" horiz-adv-x="250" 
d="M235 376l-152 -99l152 -100v-89l-220 144v89l220 144v-89z" />
    <glyph glyph-name="guilsinglright" unicode="&#x203a;" horiz-adv-x="250" 
d="M235 319v-89l-220 -144v89l152 100l-152 99v89z" />
    <glyph glyph-name="quotedbl" unicode="&#x22;" horiz-adv-x="280" 
d="M97 507l20 146v47h-97v-47l20 -146h57zM240 507l20 146v47h-97v-47l20 -146h57z" />
    <glyph glyph-name="quotesingle" unicode="'" horiz-adv-x="137" 
d="M97 507l20 146v47h-97v-47l20 -146h57z" />
    <glyph glyph-name="space" unicode=" " horiz-adv-x="350" 
 />
    <glyph glyph-name="cent" unicode="&#xa2;" 
d="M265 176c61 1 113 31 138 101l87 -32c-33 -86 -99 -134 -179 -148v-97h-90v96c-111 16 -199 100 -199 253c0 152 87 236 197 253v98h90v-99c81 -13 148 -61 181 -148l-87 -32c-25 70 -77 100 -138 101c-80 1 -149 -51 -149 -173s69 -174 149 -173z" />
    <glyph glyph-name="currency" unicode="&#xa4;" horiz-adv-x="483" 
d="M424 325c0 -34 -9 -65 -25 -92l62 -62l-66 -66l-61 62c-27 -16 -59 -25 -92 -25c-34 0 -65 9 -92 25l-62 -62l-66 66l62 62c-16 27 -25 58 -25 92s9 65 25 92l-62 62l66 66l62 -62c27 16 58 25 92 25c33 0 65 -9 92 -25l61 62l66 -66l-62 -62c16 -27 25 -58 25 -92z
M153 325c0 -49 40 -89 89 -89c48 0 88 40 88 89s-40 89 -88 89c-49 0 -89 -40 -89 -89z" />
    <glyph glyph-name="dollar" unicode="$" horiz-adv-x="600" 
d="M539 215c0 -84 -43 -195 -213 -211v-50h-90v50c-155 15 -201 106 -209 184l94 16c6 -70 58 -104 115 -115v242c-98 13 -194 39 -194 176c0 108 78 180 194 194v43h90v-45c97 -15 169 -73 182 -162l-91 -16c-7 57 -45 89 -91 101v-213c104 -13 213 -38 213 -194zM140 507
c0 -56 41 -76 96 -86v201c-52 -11 -96 -45 -96 -115zM326 87c60 11 115 46 115 128c0 70 -50 91 -115 103v-231z" />
    <glyph glyph-name="Euro" unicode="&#x20ac;" horiz-adv-x="658" 
d="M346 77c94 1 167 41 209 134l81 -47c-54 -114 -162 -170 -290 -171c-184 -1 -324 114 -324 357s140 359 324 357c128 -2 236 -57 290 -171l-81 -47c-42 93 -115 133 -209 134c-103 1 -180 -50 -208 -168h224l-10 -78h-224c-1 -9 -1 -18 -1 -27s0 -18 1 -26h234l-10 -78
h-214c27 -119 105 -170 208 -169z" />
    <glyph glyph-name="sterling" unicode="&#xa3;" horiz-adv-x="538" 
d="M523 0h-508v78c154 0 173 83 173 161c0 32 -7 57 -18 80h-108v82h57c-20 32 -37 67 -37 117c0 125 90 186 210 187c114 1 201 -56 209 -168l-90 -12c-7 75 -48 103 -119 103c-73 0 -118 -29 -118 -110c0 -47 19 -82 40 -117h142l10 -82h-105c10 -23 16 -49 16 -80
c0 -65 -25 -123 -80 -161h316z" />
    <glyph glyph-name="yen" unicode="&#xa5;" horiz-adv-x="646" 
d="M374 289h95v-73h-95v-47h95v-73h-95v-96h-100v96h-95v73h95v47h-95v73h95v56l-244 354h117l177 -264l175 264h117l-242 -354v-56z" />
    <glyph glyph-name="plus" unicode="+" horiz-adv-x="523" 
d="M493 240h-187v-187h-89v187h-187v89h187v187h89v-187h187v-89z" />
    <glyph glyph-name="minus" unicode="&#x2212;" horiz-adv-x="523" 
d="M493 329v-89h-463v89h463z" />
    <glyph glyph-name="multiply" unicode="&#xd7;" horiz-adv-x="451" 
d="M289 285l132 -133l-63 -63l-132 133l-133 -133l-63 63l133 133l-133 132l63 63l133 -132l132 132l63 -63z" />
    <glyph glyph-name="divide" unicode="&#xf7;" horiz-adv-x="523" 
d="M308 419h-93v93h93v-93zM493 329v-89h-463v89h463zM308 57h-93v93h93v-93z" />
    <glyph glyph-name="equal" unicode="=" horiz-adv-x="523" 
d="M493 449v-89h-463v89h463zM493 247v-89h-463v89h463z" />
    <glyph glyph-name="notequal" unicode="&#x2260;" horiz-adv-x="523" 
d="M337 360l-45 -113h201v-89h-237l-32 -80h-105l32 80h-121v89h157l45 113h-202v89h238l32 80h105l-32 -80h120v-89h-156z" />
    <glyph glyph-name="greater" unicode="&#x3e;" horiz-adv-x="352" 
d="M337 321v-89l-322 -144v89l222 100l-222 99v89z" />
    <glyph glyph-name="less" unicode="&#x3c;" horiz-adv-x="352" 
d="M337 376l-222 -99l222 -100v-89l-322 144v89l322 144v-89z" />
    <glyph glyph-name="greaterequal" unicode="&#x2265;" horiz-adv-x="352" 
d="M337 351v-89l-322 -144v89l222 100l-222 99v89zM15 77h322v-77h-322v77z" />
    <glyph glyph-name="lessequal" unicode="&#x2264;" horiz-adv-x="352" 
d="M337 406l-222 -99l222 -100v-89l-322 144v89l322 144v-89zM15 77h322v-77h-322v77z" />
    <glyph glyph-name="plusminus" unicode="&#xb1;" horiz-adv-x="523" 
d="M493 396v-89h-187v-147h-89v147h-187v89h187v147h89v-147h187zM30 119h463v-79h-463v79z" />
    <glyph glyph-name="approxequal" unicode="&#x2248;" horiz-adv-x="453" 
d="M320 320c77 8 120 63 112 140l-83 -10c3 -27 -1 -44 -38 -47c-49 -6 -98 74 -178 66c-80 -9 -120 -68 -112 -140l83 9c-2 30 16 45 39 48c19 2 34 -8 59 -26c27 -18 58 -41 103 -41zM320 154c77 8 120 63 112 140l-83 -10c3 -27 -1 -44 -38 -47c-49 -7 -98 74 -178 66
c-80 -9 -120 -68 -112 -140l83 9c-2 30 16 45 39 48c19 2 34 -8 59 -26c27 -18 58 -41 103 -41z" />
    <glyph glyph-name="asciitilde" unicode="~" horiz-adv-x="453" 
d="M320 212c77 8 120 62 112 139l-83 -10c3 -27 -1 -43 -38 -47c-48 -6 -97 75 -178 66c-80 -9 -120 -68 -112 -139l83 9c-2 30 16 44 39 47c19 3 34 -7 59 -25c27 -19 58 -41 103 -41z" />
    <glyph glyph-name="logicalnot" unicode="&#xac;" horiz-adv-x="480" 
d="M450 110h-92v187h-333v83h425v-270z" />
    <glyph glyph-name="asciicircum" unicode="^" horiz-adv-x="427" 
d="M313 500l-100 208l-100 -208h-88l144 300h89l144 -300h-89z" />
    <glyph glyph-name="emptyset" unicode="&#x2205;" horiz-adv-x="594" 
d="M297 608c152 0 275 -123 275 -274c0 -152 -123 -275 -275 -275s-275 123 -275 275c0 151 123 274 275 274zM92 334c0 -45 14 -86 38 -119l286 286c-34 23 -75 37 -119 37c-113 0 -205 -91 -205 -204zM297 129c112 0 205 90 205 205c0 44 -14 84 -37 118l-286 -286
c33 -23 74 -37 118 -37z" />
    <glyph glyph-name="infinity" unicode="&#x221e;" horiz-adv-x="740" 
d="M558 458c105 0 160 -74 160 -147c0 -38 -14 -75 -41 -102c-21 -20 -58 -45 -119 -45c-82 0 -137 45 -188 94c-50 -49 -105 -94 -188 -94c-105 0 -160 74 -160 147c0 39 15 75 41 102c21 20 58 45 119 45c80 0 136 -48 188 -98c53 50 108 98 188 98zM182 237
c55 0 95 31 136 72c-44 42 -84 76 -136 76c-28 0 -52 -8 -67 -23c-13 -14 -20 -31 -20 -51c0 -37 27 -74 87 -74zM625 261c14 13 21 31 21 50c0 52 -44 74 -88 74c-51 0 -92 -34 -136 -76c42 -41 81 -72 136 -72c28 0 52 8 67 24z" />
    <glyph glyph-name="integral" unicode="&#x222b;" horiz-adv-x="356" 
d="M341 822v-88h-22c-40 0 -45 -21 -51 -72l-80 -662c-10 -98 -33 -160 -151 -160h-22v88h22c40 0 44 21 51 72l80 662c11 98 33 160 151 160h22z" />
    <glyph glyph-name="product" unicode="&#x220f;" horiz-adv-x="635" 
d="M620 614h-152v-614h-99v614h-113v-614h-99v614h-142v86h605v-86z" />
    <glyph glyph-name="summation" unicode="&#x2211;" horiz-adv-x="538" 
d="M523 638h-355l139 -280h-1l-138 -280h355v-78h-493l177 358h1l-178 358h493v-78z" />
    <glyph glyph-name="radical" unicode="&#x221a;" horiz-adv-x="645" 
d="M542 408l-28 63l-264 -591h-89l-145 322h89l100 -223l263 592h90l73 -163h-89z" />
    <glyph glyph-name="partialdiff" unicode="&#x2202;" horiz-adv-x="528" 
d="M312 704c170 -31 228 -217 190 -432s-150 -296 -289 -271c-120 21 -221 103 -193 263c43 247 344 234 400 45c27 211 -44 305 -121 319zM393 199c18 100 -45 158 -115 169c-70 12 -148 -19 -166 -120c-18 -100 43 -157 115 -169c72 -13 149 19 166 120z" />
    <glyph glyph-name="percent" unicode="%" horiz-adv-x="690" 
d="M161 410c194 0 194 290 0 290s-194 -290 0 -290zM159 0l463 700h-99l-463 -700h99zM161 479c-84 0 -84 152 0 152s84 -152 0 -152zM529 0c194 0 194 290 0 290s-194 -290 0 -290zM529 69c-84 0 -84 152 0 152s84 -152 0 -152z" />
    <glyph glyph-name="perthousand" unicode="&#x2030;" horiz-adv-x="1025" 
d="M160 410c194 0 194 290 0 290s-194 -290 0 -290zM158 0l463 700h-99l-463 -700h99zM160 479c-84 0 -84 152 0 152s84 -152 0 -152zM528 0c194 0 194 290 0 290s-194 -290 0 -290zM864 -2c194 0 194 290 0 290s-194 -290 0 -290zM528 69c-84 0 -84 152 0 152
s84 -152 0 -152zM864 67c-84 0 -84 152 0 152s84 -152 0 -152z" />
    <glyph glyph-name="arrowup" unicode="&#x2191;" horiz-adv-x="636" 
d="M546 332l-179 179v-511h-98v511l-179 -179l-70 70l298 298l298 -298z" />
    <glyph glyph-name="uni2197" unicode="&#x2197;" horiz-adv-x="569" 
d="M549 529v-421h-99v253l-361 -361l-69 69l361 361h-253v99h421z" />
    <glyph glyph-name="arrowright" unicode="&#x2192;" horiz-adv-x="740" 
d="M720 333l-298 -298l-70 69l180 180l-512 -1v98l510 1l-178 179l70 70z" />
    <glyph glyph-name="uni2198" unicode="&#x2198;" horiz-adv-x="569" 
d="M549 421v-421h-421v99h253l-361 361l69 70l361 -361v252h99z" />
    <glyph glyph-name="arrowdown" unicode="&#x2193;" horiz-adv-x="636" 
d="M616 298l-298 -298l-298 298l70 70l179 -179v511h98v-511l179 179z" />
    <glyph glyph-name="uni2199" unicode="&#x2199;" horiz-adv-x="569" 
d="M188 99h253v-99h-421v421h99v-252l361 361l69 -70z" />
    <glyph glyph-name="arrowleft" unicode="&#x2190;" horiz-adv-x="740" 
d="M720 284h-511l179 -179l-70 -70l-298 298l298 298l70 -70l-179 -179l511 -1v-97z" />
    <glyph glyph-name="uni2196" unicode="&#x2196;" horiz-adv-x="569" 
d="M480 0l-361 361v-253h-99v421h421v-99h-253l361 -361z" />
    <glyph glyph-name="arrowboth" unicode="&#x2194;" horiz-adv-x="920" 
d="M900 333l-298 -298l-70 70l179 179h-502l179 -179l-70 -70l-298 298l298 298l70 -70l-179 -179l503 -1l-180 180l70 70z" />
    <glyph glyph-name="arrowupdn" unicode="&#x2195;" horiz-adv-x="350" 
d="M205 537v-375l125 70v-58l-155 -169l-155 169v58l126 -71v377l-126 -71v58l155 169l155 -169v-58z" />
    <glyph glyph-name="lozenge" unicode="&#x25ca;" horiz-adv-x="417" 
d="M397 327l-144 -220h-89l-144 220l144 220h89zM308 327l-99 152l-100 -152l100 -152z" />
    <glyph glyph-name="at" unicode="@" horiz-adv-x="798" 
d="M574 476v-272c0 -114 114 -112 114 116c0 177 -96 307 -290 307c-195 0 -288 -130 -288 -307c0 -336 248 -387 574 -277v-79c-399 -130 -662 -17 -662 356c0 232 136 380 376 380c231 0 378 -148 378 -380c0 -319 -271 -315 -284 -131c-19 -36 -54 -60 -116 -60
c-97 0 -170 47 -170 180s73 180 170 180c62 0 96 -24 115 -59v46h83zM390 181c57 0 101 24 101 128s-44 128 -101 128c-66 0 -92 -50 -92 -128s26 -128 92 -128z" />
    <glyph glyph-name="ampersand" unicode="&#x26;" horiz-adv-x="642" 
d="M627 -1c-67 0 -132 17 -192 46c-159 -107 -420 -44 -420 162c0 108 61 154 133 182c-16 50 -24 102 -24 153c0 220 358 220 358 0c0 -137 -116 -166 -218 -197c38 -81 98 -146 165 -189c25 34 40 78 40 133h87c0 -71 -19 -128 -49 -173c40 -16 81 -24 120 -24v-93z
M220 542c0 -44 6 -86 17 -124c80 23 151 45 151 124c0 114 -168 114 -168 0zM108 207c0 -126 143 -167 249 -113c-75 56 -138 133 -179 219c-41 -22 -70 -53 -70 -106z" />
    <glyph glyph-name="paragraph" unicode="&#xb6;" horiz-adv-x="485" 
d="M30 497c0 115 94 209 210 209h86v-794h-86v375c-116 0 -210 94 -210 210zM455 706v-794h-86v794h86z" />
    <glyph glyph-name="section" unicode="&#xa7;" horiz-adv-x="464" 
d="M354 177c50 -12 88 -43 88 -133c0 -153 -157 -166 -212 -166c-50 0 -192 12 -208 141l93 18c9 -55 59 -79 115 -79c58 0 114 26 114 86c0 112 -315 -15 -315 195c0 65 35 103 81 125c-50 12 -88 43 -88 133c0 153 157 166 212 166c50 0 192 -12 208 -141l-93 -18
c-9 55 -59 79 -115 79c-58 0 -114 -26 -114 -86c0 -112 315 15 315 -195c0 -65 -35 -103 -81 -125zM127 266c0 -50 23 -70 56 -78c109 -20 154 26 154 87c0 50 -23 70 -56 78c-109 20 -154 -26 -154 -87z" />
    <glyph glyph-name="copyright" unicode="&#xa9;" horiz-adv-x="794" 
d="M397 -50c-207 0 -375 168 -375 375s168 375 375 375s375 -168 375 -375s-168 -375 -375 -375zM397 30c163 0 295 132 295 295s-132 295 -295 295s-295 -132 -295 -295s132 -295 295 -295zM202 326c-1 142 92 212 200 211c82 -1 153 -42 185 -125l-72 -27
c-21 58 -63 82 -113 83c-66 1 -123 -42 -123 -142s57 -142 123 -142c50 0 92 25 113 83l72 -27c-32 -83 -103 -124 -185 -125c-108 -1 -199 69 -200 211z" />
    <glyph glyph-name="registered" unicode="&#xae;" horiz-adv-x="356" 
d="M178 745c86 0 156 -70 156 -156s-70 -156 -156 -156s-156 70 -156 156s70 156 156 156zM178 460c71 0 129 58 129 129s-58 129 -129 129s-129 -58 -129 -129s58 -129 129 -129zM243 618c0 -26 -12 -44 -34 -52l36 -62h-26l-32 58h-44v-58h-24v171h62c39 0 62 -21 62 -57z
M143 582h38c25 0 38 15 38 36c0 22 -13 37 -38 37h-38v-73z" />
    <glyph glyph-name="trademark" unicode="&#x2122;" horiz-adv-x="254" 
d="M108 644h-26v-64h-26v64h-26v26h78v-26zM224 580h-26v36l-17 -36h-24l-17 37v-37h-25v90h27l27 -63l28 63h27v-90z" />
    <glyph glyph-name="degree" unicode="&#xb0;" horiz-adv-x="356" 
d="M178 433c-86 0 -156 70 -156 156s70 156 156 156s156 -70 156 -156s-70 -156 -156 -156zM178 493c53 0 96 43 96 96s-43 96 -96 96s-96 -43 -96 -96s43 -96 96 -96z" />
    <glyph glyph-name="bar" unicode="|" horiz-adv-x="159" 
d="M129 -200v900h-99v-900h99z" />
    <glyph glyph-name="brokenbar" unicode="&#xa6;" horiz-adv-x="159" 
d="M129 319v379h-99v-379h99zM129 -200v379h-99v-379h99z" />
    <glyph glyph-name="dagger" unicode="&#x2020;" horiz-adv-x="273" 
d="M258 548h-72v-204h-99v204h-72v68h72v84h99v-84h72v-68z" />
    <glyph glyph-name="daggerdbl" unicode="&#x2021;" horiz-adv-x="273" 
d="M186 548v-49h72v-68h-72v-87h-99v87h-72v68h72v49h-72v68h72v84h99v-84h72v-68h-72z" />
    <glyph glyph-name="uni0308" unicode="&#x308;" horiz-adv-x="0" 
d="M-250 700h101v-109h-101v109zM-111 700h101v-109h-101v109z" />
    <glyph glyph-name="uni0307" unicode="&#x307;" horiz-adv-x="0" 
d="M-111 700h101v-109h-101v109z" />
    <glyph glyph-name="gravecomb" unicode="&#x300;" horiz-adv-x="0" 
d="M-103 558l-77 142h92l58 -142h-73z" />
    <glyph glyph-name="acutecomb" unicode="&#x301;" horiz-adv-x="0" 
d="M-70 700h92l-77 -142h-73z" />
    <glyph glyph-name="uni030B" unicode="&#x30b;" horiz-adv-x="0" 
d="M-242 700h92l-97 -142h-53zM-112 700h92l-97 -142h-53z" />
    <glyph glyph-name="uni0302" unicode="&#x302;" horiz-adv-x="0" 
d="M-124 581l-73 93l-74 -93h-94l127 119h81l127 -119h-94z" />
    <glyph glyph-name="uni030C" unicode="&#x30c;" horiz-adv-x="0" 
d="M-30 700l-127 -119h-81l-127 119h94l74 -93l73 93h94z" />
    <glyph glyph-name="uni0306" unicode="&#x306;" horiz-adv-x="0" 
d="M-254 699c0 -52 29 -89 81 -89s81 37 81 89h72c0 -89 -64 -156 -153 -156s-153 67 -153 156h72z" />
    <glyph glyph-name="uni030A" unicode="&#x30a;" horiz-adv-x="0" 
d="M-110 544c-51 0 -91 40 -91 91c0 50 40 90 91 90c50 0 90 -40 90 -90c0 -51 -40 -91 -90 -91zM-110 597c20 0 37 17 37 38c0 20 -17 37 -37 37c-21 0 -38 -17 -38 -37c0 -21 17 -38 38 -38z" />
    <glyph glyph-name="tildecomb" unicode="&#x303;" horiz-adv-x="0" 
d="M-387 622c29 58 61 85 129 81c68 -3 81 -55 122 -57c35 -2 50 15 63 51l63 -23c-11 -35 -53 -97 -129 -93c-65 4 -72 54 -122 57c-43 2 -61 -27 -75 -57z" />
    <glyph glyph-name="uni0304" unicode="&#x304;" horiz-adv-x="0" 
d="M-20 640v-71h-275v71h275z" />
    <glyph glyph-name="uni0326" unicode="&#x326;" horiz-adv-x="0" 
d="M-132 -50h112l-77 -142h-93z" />
    <glyph glyph-name="uni0327" unicode="&#x327;" horiz-adv-x="0" 
d="M-203 -76v-38c40 0 104 -1 104 -49c0 -54 -80 -48 -118 0l-45 -48c60 -90 242 -83 242 48c0 69 -63 92 -118 92l35 75h-58z" />
    <glyph glyph-name="uni0328" unicode="&#x328;" horiz-adv-x="0" 
d="M-148 4c-186 -259 67 -280 128 -230l-41 69c-142 -43 -54 141 -34 161h-53z" />
    <glyph glyph-name="acute" unicode="&#xb4;" horiz-adv-x="190" 
d="M78 697h92l-77 -142h-73z" />
    <glyph glyph-name="breve" unicode="&#x2d8;" horiz-adv-x="346" 
d="M92 699c0 -52 29 -89 81 -89s81 37 81 89h72c0 -89 -64 -156 -153 -156s-153 67 -153 156h72z" />
    <glyph glyph-name="caron" unicode="&#x2c7;" horiz-adv-x="359" 
d="M345 690l-127 -119h-81l-127 119h94l74 -93l73 93h94z" />
    <glyph glyph-name="cedilla" unicode="&#xb8;" horiz-adv-x="282" 
d="M79 -66v-38c40 0 104 -1 104 -49c0 -54 -80 -48 -118 0l-45 -48c60 -90 242 -83 242 48c0 69 -63 92 -118 92l35 75h-58z" />
    <glyph glyph-name="circumflex" unicode="&#x2c6;" horiz-adv-x="395" 
d="M271 581l-73 93l-74 -93h-94l127 119h81l127 -119h-94z" />
    <glyph glyph-name="dieresis" unicode="&#xa8;" horiz-adv-x="260" 
d="M10 700h101v-109h-101v109zM149 700h101v-109h-101v109z" />
    <glyph glyph-name="dotaccent" unicode="&#x2d9;" horiz-adv-x="121" 
d="M10 700h101v-109h-101v109z" />
    <glyph glyph-name="grave" unicode="`" horiz-adv-x="190" 
d="M55 558l-77 142h92l58 -142h-73z" />
    <glyph glyph-name="hungarumlaut" unicode="&#x2dd;" horiz-adv-x="320" 
d="M78 700h92l-97 -142h-53zM208 700h92l-97 -142h-53z" />
    <glyph glyph-name="macron" unicode="&#xaf;" horiz-adv-x="315" 
d="M295 640v-71h-275v71h275z" />
    <glyph glyph-name="ogonek" unicode="&#x2db;" horiz-adv-x="235" 
d="M87 4c-186 -259 67 -280 128 -230l-41 69c-142 -43 -54 141 -34 161h-53z" />
    <glyph glyph-name="ring" unicode="&#x2da;" horiz-adv-x="221" 
d="M111 544c-51 0 -91 40 -91 91c0 50 40 90 91 90c50 0 90 -40 90 -90c0 -51 -40 -91 -90 -91zM111 597c20 0 37 17 37 38c0 20 -17 37 -37 37c-21 0 -38 -17 -38 -37c0 -21 17 -38 38 -38z" />
    <glyph glyph-name="tilde" unicode="&#x2dc;" horiz-adv-x="397" 
d="M10 622c29 58 61 85 129 81c68 -3 81 -55 122 -57c35 -2 50 15 63 51l63 -23c-11 -35 -53 -97 -129 -93c-65 4 -72 54 -122 57c-43 2 -61 -27 -75 -57z" />
    </font>
</defs>
</svg>
